<mxfile host="65bd71144e" pages="3">
    <diagram id="poJc1KSDTtcJNR5L8w0y" name="user_pre_page_game">
        <mxGraphModel dx="798" dy="610" grid="1" gridSize="10" guides="1" tooltips="1" connect="1" arrows="1" fold="1" page="1" pageScale="1" pageWidth="1169" pageHeight="1654" math="0" shadow="0">
            <root>
                <mxCell id="0"/>
                <mxCell id="1" parent="0"/>
                <mxCell id="hbKH5lhipP4agjAPJ4u4-29" style="edgeStyle=orthogonalEdgeStyle;rounded=0;orthogonalLoop=1;jettySize=auto;html=1;" parent="1" source="hbKH5lhipP4agjAPJ4u4-1" target="hbKH5lhipP4agjAPJ4u4-2" edge="1">
                    <mxGeometry relative="1" as="geometry"/>
                </mxCell>
                <mxCell id="hbKH5lhipP4agjAPJ4u4-30" style="edgeStyle=orthogonalEdgeStyle;rounded=0;orthogonalLoop=1;jettySize=auto;html=1;exitX=0.5;exitY=1;exitDx=0;exitDy=0;" parent="1" source="hbKH5lhipP4agjAPJ4u4-1" edge="1">
                    <mxGeometry relative="1" as="geometry">
                        <mxPoint x="630" y="80" as="targetPoint"/>
                    </mxGeometry>
                </mxCell>
                <mxCell id="hbKH5lhipP4agjAPJ4u4-1" value="Start" style="ellipse;whiteSpace=wrap;html=1;" parent="1" vertex="1">
                    <mxGeometry x="570" y="20" width="120" height="80" as="geometry"/>
                </mxCell>
                <mxCell id="hbKH5lhipP4agjAPJ4u4-28" style="edgeStyle=orthogonalEdgeStyle;rounded=0;orthogonalLoop=1;jettySize=auto;html=1;" parent="1" source="hbKH5lhipP4agjAPJ4u4-2" target="hbKH5lhipP4agjAPJ4u4-3" edge="1">
                    <mxGeometry relative="1" as="geometry"/>
                </mxCell>
                <mxCell id="hbKH5lhipP4agjAPJ4u4-2" value="Użytkownik wchodzi na stron" style="rounded=0;whiteSpace=wrap;html=1;" parent="1" vertex="1">
                    <mxGeometry x="570" y="140" width="120" height="60" as="geometry"/>
                </mxCell>
                <mxCell id="hbKH5lhipP4agjAPJ4u4-10" style="edgeStyle=orthogonalEdgeStyle;rounded=0;orthogonalLoop=1;jettySize=auto;html=1;" parent="1" source="hbKH5lhipP4agjAPJ4u4-3" target="hbKH5lhipP4agjAPJ4u4-4" edge="1">
                    <mxGeometry relative="1" as="geometry"/>
                </mxCell>
                <mxCell id="hbKH5lhipP4agjAPJ4u4-3" value="Uzupełnij (Form)" style="shape=parallelogram;perimeter=parallelogramPerimeter;whiteSpace=wrap;html=1;fixedSize=1;" parent="1" vertex="1">
                    <mxGeometry x="570" y="250" width="120" height="60" as="geometry"/>
                </mxCell>
                <mxCell id="hbKH5lhipP4agjAPJ4u4-11" style="edgeStyle=orthogonalEdgeStyle;rounded=0;orthogonalLoop=1;jettySize=auto;html=1;" parent="1" source="hbKH5lhipP4agjAPJ4u4-4" target="hbKH5lhipP4agjAPJ4u4-5" edge="1">
                    <mxGeometry relative="1" as="geometry"/>
                </mxCell>
                <mxCell id="hbKH5lhipP4agjAPJ4u4-4" value="Submit (Form)" style="rounded=0;whiteSpace=wrap;html=1;" parent="1" vertex="1">
                    <mxGeometry x="570" y="350" width="120" height="60" as="geometry"/>
                </mxCell>
                <mxCell id="hbKH5lhipP4agjAPJ4u4-12" style="edgeStyle=orthogonalEdgeStyle;rounded=0;orthogonalLoop=1;jettySize=auto;html=1;entryX=0.5;entryY=0;entryDx=0;entryDy=0;" parent="1" source="hbKH5lhipP4agjAPJ4u4-5" target="hbKH5lhipP4agjAPJ4u4-6" edge="1">
                    <mxGeometry relative="1" as="geometry"/>
                </mxCell>
                <mxCell id="hbKH5lhipP4agjAPJ4u4-16" value="Tak" style="edgeLabel;html=1;align=center;verticalAlign=middle;resizable=0;points=[];" parent="hbKH5lhipP4agjAPJ4u4-12" vertex="1" connectable="0">
                    <mxGeometry x="0.0514" y="2" relative="1" as="geometry">
                        <mxPoint as="offset"/>
                    </mxGeometry>
                </mxCell>
                <mxCell id="hbKH5lhipP4agjAPJ4u4-24" style="edgeStyle=orthogonalEdgeStyle;rounded=0;orthogonalLoop=1;jettySize=auto;html=1;entryX=0.5;entryY=0;entryDx=0;entryDy=0;" parent="1" source="hbKH5lhipP4agjAPJ4u4-5" target="hbKH5lhipP4agjAPJ4u4-20" edge="1">
                    <mxGeometry relative="1" as="geometry">
                        <Array as="points">
                            <mxPoint x="530" y="535"/>
                        </Array>
                    </mxGeometry>
                </mxCell>
                <mxCell id="hbKH5lhipP4agjAPJ4u4-25" value="Nie" style="edgeLabel;html=1;align=center;verticalAlign=middle;resizable=0;points=[];" parent="hbKH5lhipP4agjAPJ4u4-24" vertex="1" connectable="0">
                    <mxGeometry x="-0.6346" y="-2" relative="1" as="geometry">
                        <mxPoint as="offset"/>
                    </mxGeometry>
                </mxCell>
                <mxCell id="hbKH5lhipP4agjAPJ4u4-5" value="Czy użytkownik ma otwartą stronę w innej karcie" style="rhombus;whiteSpace=wrap;html=1;" parent="1" vertex="1">
                    <mxGeometry x="560" y="460" width="140" height="150" as="geometry"/>
                </mxCell>
                <mxCell id="hbKH5lhipP4agjAPJ4u4-13" style="edgeStyle=orthogonalEdgeStyle;rounded=0;orthogonalLoop=1;jettySize=auto;html=1;entryX=0.5;entryY=0;entryDx=0;entryDy=0;" parent="1" source="hbKH5lhipP4agjAPJ4u4-6" target="hbKH5lhipP4agjAPJ4u4-7" edge="1">
                    <mxGeometry relative="1" as="geometry"/>
                </mxCell>
                <mxCell id="hbKH5lhipP4agjAPJ4u4-6" value="&lt;div&gt;Wyświetl komunikat o zamknięciu pozostałych kart&lt;br&gt;&lt;/div&gt;&lt;div&gt;Confirm (PageClose)&lt;/div&gt;" style="rounded=0;whiteSpace=wrap;html=1;" parent="1" vertex="1">
                    <mxGeometry x="770" y="580" width="120" height="60" as="geometry"/>
                </mxCell>
                <mxCell id="hbKH5lhipP4agjAPJ4u4-14" style="edgeStyle=orthogonalEdgeStyle;rounded=0;orthogonalLoop=1;jettySize=auto;html=1;entryX=0.5;entryY=0;entryDx=0;entryDy=0;" parent="1" source="hbKH5lhipP4agjAPJ4u4-7" target="hbKH5lhipP4agjAPJ4u4-8" edge="1">
                    <mxGeometry relative="1" as="geometry"/>
                </mxCell>
                <mxCell id="hbKH5lhipP4agjAPJ4u4-7" value="Submit (PageClose" style="shape=parallelogram;perimeter=parallelogramPerimeter;whiteSpace=wrap;html=1;fixedSize=1;" parent="1" vertex="1">
                    <mxGeometry x="770" y="710" width="120" height="60" as="geometry"/>
                </mxCell>
                <mxCell id="hbKH5lhipP4agjAPJ4u4-17" style="edgeStyle=orthogonalEdgeStyle;rounded=0;orthogonalLoop=1;jettySize=auto;html=1;" parent="1" source="hbKH5lhipP4agjAPJ4u4-8" target="hbKH5lhipP4agjAPJ4u4-15" edge="1">
                    <mxGeometry relative="1" as="geometry"/>
                </mxCell>
                <mxCell id="hbKH5lhipP4agjAPJ4u4-8" value="checkIfPageClosed()" style="shape=hexagon;perimeter=hexagonPerimeter2;whiteSpace=wrap;html=1;fixedSize=1;" parent="1" vertex="1">
                    <mxGeometry x="770" y="830" width="120" height="80" as="geometry"/>
                </mxCell>
                <mxCell id="hbKH5lhipP4agjAPJ4u4-18" style="edgeStyle=orthogonalEdgeStyle;rounded=0;orthogonalLoop=1;jettySize=auto;html=1;entryX=0.5;entryY=0;entryDx=0;entryDy=0;" parent="1" source="hbKH5lhipP4agjAPJ4u4-15" target="hbKH5lhipP4agjAPJ4u4-6" edge="1">
                    <mxGeometry relative="1" as="geometry">
                        <Array as="points">
                            <mxPoint x="730" y="1020"/>
                            <mxPoint x="730" y="560"/>
                            <mxPoint x="830" y="560"/>
                        </Array>
                    </mxGeometry>
                </mxCell>
                <mxCell id="hbKH5lhipP4agjAPJ4u4-19" value="Nie" style="edgeLabel;html=1;align=center;verticalAlign=middle;resizable=0;points=[];" parent="hbKH5lhipP4agjAPJ4u4-18" vertex="1" connectable="0">
                    <mxGeometry x="0.36" y="1" relative="1" as="geometry">
                        <mxPoint as="offset"/>
                    </mxGeometry>
                </mxCell>
                <mxCell id="hbKH5lhipP4agjAPJ4u4-26" style="edgeStyle=orthogonalEdgeStyle;rounded=0;orthogonalLoop=1;jettySize=auto;html=1;entryX=0.5;entryY=0;entryDx=0;entryDy=0;" parent="1" source="hbKH5lhipP4agjAPJ4u4-15" target="hbKH5lhipP4agjAPJ4u4-20" edge="1">
                    <mxGeometry relative="1" as="geometry">
                        <Array as="points">
                            <mxPoint x="930" y="1020"/>
                            <mxPoint x="930" y="1120"/>
                            <mxPoint x="530" y="1120"/>
                        </Array>
                    </mxGeometry>
                </mxCell>
                <mxCell id="hbKH5lhipP4agjAPJ4u4-27" value="Tak" style="edgeLabel;html=1;align=center;verticalAlign=middle;resizable=0;points=[];" parent="hbKH5lhipP4agjAPJ4u4-26" vertex="1" connectable="0">
                    <mxGeometry x="0.4643" y="4" relative="1" as="geometry">
                        <mxPoint as="offset"/>
                    </mxGeometry>
                </mxCell>
                <mxCell id="hbKH5lhipP4agjAPJ4u4-15" value="Strona została zamknięta" style="rhombus;whiteSpace=wrap;html=1;" parent="1" vertex="1">
                    <mxGeometry x="770" y="960" width="120" height="120" as="geometry"/>
                </mxCell>
                <mxCell id="hbKH5lhipP4agjAPJ4u4-32" value="" style="edgeStyle=orthogonalEdgeStyle;rounded=0;orthogonalLoop=1;jettySize=auto;html=1;" parent="1" source="hbKH5lhipP4agjAPJ4u4-20" target="hbKH5lhipP4agjAPJ4u4-31" edge="1">
                    <mxGeometry relative="1" as="geometry"/>
                </mxCell>
                <mxCell id="hbKH5lhipP4agjAPJ4u4-20" value="process (Form)" style="shape=hexagon;perimeter=hexagonPerimeter2;whiteSpace=wrap;html=1;fixedSize=1;" parent="1" vertex="1">
                    <mxGeometry x="470" y="1140" width="120" height="80" as="geometry"/>
                </mxCell>
                <mxCell id="hbKH5lhipP4agjAPJ4u4-34" value="" style="edgeStyle=orthogonalEdgeStyle;rounded=0;orthogonalLoop=1;jettySize=auto;html=1;" parent="1" source="hbKH5lhipP4agjAPJ4u4-31" target="hbKH5lhipP4agjAPJ4u4-33" edge="1">
                    <mxGeometry relative="1" as="geometry">
                        <Array as="points">
                            <mxPoint x="730" y="1350"/>
                        </Array>
                    </mxGeometry>
                </mxCell>
                <mxCell id="hbKH5lhipP4agjAPJ4u4-38" value="" style="edgeStyle=orthogonalEdgeStyle;rounded=0;orthogonalLoop=1;jettySize=auto;html=1;" parent="1" source="hbKH5lhipP4agjAPJ4u4-31" target="hbKH5lhipP4agjAPJ4u4-37" edge="1">
                    <mxGeometry relative="1" as="geometry">
                        <Array as="points">
                            <mxPoint x="380" y="1350"/>
                        </Array>
                    </mxGeometry>
                </mxCell>
                <mxCell id="hbKH5lhipP4agjAPJ4u4-31" value="Czy pojawiły się błędy w formularzu" style="rhombus;whiteSpace=wrap;html=1;" parent="1" vertex="1">
                    <mxGeometry x="450" y="1270" width="160" height="160" as="geometry"/>
                </mxCell>
                <mxCell id="hbKH5lhipP4agjAPJ4u4-36" value="" style="edgeStyle=orthogonalEdgeStyle;rounded=0;orthogonalLoop=1;jettySize=auto;html=1;" parent="1" source="hbKH5lhipP4agjAPJ4u4-33" target="hbKH5lhipP4agjAPJ4u4-35" edge="1">
                    <mxGeometry relative="1" as="geometry"/>
                </mxCell>
                <mxCell id="hbKH5lhipP4agjAPJ4u4-33" value="Wyświetl komunikat o błędach" style="whiteSpace=wrap;html=1;" parent="1" vertex="1">
                    <mxGeometry x="670" y="1430" width="120" height="60" as="geometry"/>
                </mxCell>
                <mxCell id="hbKH5lhipP4agjAPJ4u4-45" style="edgeStyle=orthogonalEdgeStyle;rounded=0;orthogonalLoop=1;jettySize=auto;html=1;entryX=1;entryY=0.5;entryDx=0;entryDy=0;" parent="1" source="hbKH5lhipP4agjAPJ4u4-35" target="hbKH5lhipP4agjAPJ4u4-4" edge="1">
                    <mxGeometry relative="1" as="geometry">
                        <mxPoint x="1020" y="700" as="targetPoint"/>
                        <Array as="points">
                            <mxPoint x="730" y="1660"/>
                            <mxPoint x="1000" y="1660"/>
                            <mxPoint x="1000" y="380"/>
                        </Array>
                    </mxGeometry>
                </mxCell>
                <mxCell id="hbKH5lhipP4agjAPJ4u4-35" value="Submit (Form)" style="shape=parallelogram;perimeter=parallelogramPerimeter;whiteSpace=wrap;html=1;fixedSize=1;" parent="1" vertex="1">
                    <mxGeometry x="670" y="1530" width="120" height="60" as="geometry"/>
                </mxCell>
                <mxCell id="hbKH5lhipP4agjAPJ4u4-40" value="" style="edgeStyle=orthogonalEdgeStyle;rounded=0;orthogonalLoop=1;jettySize=auto;html=1;" parent="1" source="hbKH5lhipP4agjAPJ4u4-37" target="hbKH5lhipP4agjAPJ4u4-39" edge="1">
                    <mxGeometry relative="1" as="geometry"/>
                </mxCell>
                <mxCell id="hbKH5lhipP4agjAPJ4u4-37" value="prepareGame()" style="shape=hexagon;perimeter=hexagonPerimeter2;whiteSpace=wrap;html=1;fixedSize=1;" parent="1" vertex="1">
                    <mxGeometry x="320" y="1430" width="120" height="80" as="geometry"/>
                </mxCell>
                <mxCell id="hbKH5lhipP4agjAPJ4u4-42" value="" style="edgeStyle=orthogonalEdgeStyle;rounded=0;orthogonalLoop=1;jettySize=auto;html=1;" parent="1" source="hbKH5lhipP4agjAPJ4u4-39" target="hbKH5lhipP4agjAPJ4u4-41" edge="1">
                    <mxGeometry relative="1" as="geometry"/>
                </mxCell>
                <mxCell id="hbKH5lhipP4agjAPJ4u4-39" value="Przeniesienie użytkownika na stronę z grą" style="whiteSpace=wrap;html=1;" parent="1" vertex="1">
                    <mxGeometry x="320" y="1594" width="120" height="60" as="geometry"/>
                </mxCell>
                <mxCell id="hbKH5lhipP4agjAPJ4u4-41" value="End" style="ellipse;whiteSpace=wrap;html=1;" parent="1" vertex="1">
                    <mxGeometry x="320" y="1720" width="120" height="60" as="geometry"/>
                </mxCell>
                <mxCell id="hbKH5lhipP4agjAPJ4u4-43" value="Tak" style="text;html=1;align=center;verticalAlign=middle;resizable=0;points=[];autosize=1;strokeColor=none;fillColor=none;" parent="1" vertex="1">
                    <mxGeometry x="670" y="1330" width="30" height="20" as="geometry"/>
                </mxCell>
                <mxCell id="hbKH5lhipP4agjAPJ4u4-44" value="Nie" style="text;html=1;align=center;verticalAlign=middle;resizable=0;points=[];autosize=1;strokeColor=none;fillColor=none;" parent="1" vertex="1">
                    <mxGeometry x="395" y="1330" width="30" height="20" as="geometry"/>
                </mxCell>
            </root>
        </mxGraphModel>
    </diagram>
    <diagram id="Lo2ygueU2JucT0ZOrYiS" name="process_form">
        <mxGraphModel dx="1421" dy="792" grid="1" gridSize="10" guides="1" tooltips="1" connect="1" arrows="1" fold="1" page="1" pageScale="1" pageWidth="1169" pageHeight="1654" math="0" shadow="0">
            <root>
                <mxCell id="Xxn04_pJcORC2cfgK8v2-0"/>
                <mxCell id="Xxn04_pJcORC2cfgK8v2-1" parent="Xxn04_pJcORC2cfgK8v2-0"/>
                <mxCell id="7MpK5aDozFMz03LjedIO-0" value="Start" style="ellipse;whiteSpace=wrap;html=1;" vertex="1" parent="Xxn04_pJcORC2cfgK8v2-1">
                    <mxGeometry x="525" y="30" width="120" height="80" as="geometry"/>
                </mxCell>
            </root>
        </mxGraphModel>
    </diagram>
    <diagram id="sykFAUR255NdcCFFkOpa" name="mapa_mysli">
        <mxGraphModel dx="798" dy="610" grid="1" gridSize="10" guides="1" tooltips="1" connect="1" arrows="1" fold="1" page="1" pageScale="1" pageWidth="4681" pageHeight="3300" math="0" shadow="0">
            <root>
                <mxCell id="kru6xRTg25A1OfZsXqoX-0"/>
                <mxCell id="kru6xRTg25A1OfZsXqoX-1" parent="kru6xRTg25A1OfZsXqoX-0"/>
                <mxCell id="kru6xRTg25A1OfZsXqoX-4" value="" style="edgeStyle=orthogonalEdgeStyle;rounded=0;orthogonalLoop=1;jettySize=auto;html=1;" parent="kru6xRTg25A1OfZsXqoX-1" source="kru6xRTg25A1OfZsXqoX-2" target="kru6xRTg25A1OfZsXqoX-3" edge="1">
                    <mxGeometry relative="1" as="geometry"/>
                </mxCell>
                <mxCell id="kru6xRTg25A1OfZsXqoX-2" value="Użytkownik tworzy nową grę" style="ellipse;whiteSpace=wrap;html=1;aspect=fixed;" parent="kru6xRTg25A1OfZsXqoX-1" vertex="1">
                    <mxGeometry x="760" y="120" width="80" height="80" as="geometry"/>
                </mxCell>
                <mxCell id="kru6xRTg25A1OfZsXqoX-8" value="" style="edgeStyle=orthogonalEdgeStyle;rounded=0;orthogonalLoop=1;jettySize=auto;html=1;entryX=0.5;entryY=0;entryDx=0;entryDy=0;" parent="kru6xRTg25A1OfZsXqoX-1" source="kru6xRTg25A1OfZsXqoX-3" target="kru6xRTg25A1OfZsXqoX-7" edge="1">
                    <mxGeometry relative="1" as="geometry">
                        <mxPoint x="800" y="350" as="targetPoint"/>
                    </mxGeometry>
                </mxCell>
                <mxCell id="kru6xRTg25A1OfZsXqoX-3" value="Uzupełnia formularz" style="ellipse;whiteSpace=wrap;html=1" parent="kru6xRTg25A1OfZsXqoX-1" vertex="1">
                    <mxGeometry x="740" y="250" width="120" height="60" as="geometry"/>
                </mxCell>
                <mxCell id="kru6xRTg25A1OfZsXqoX-12" value="" style="edgeStyle=orthogonalEdgeStyle;rounded=0;orthogonalLoop=1;jettySize=auto;html=1;" parent="kru6xRTg25A1OfZsXqoX-1" source="kru6xRTg25A1OfZsXqoX-7" target="kru6xRTg25A1OfZsXqoX-11" edge="1">
                    <mxGeometry relative="1" as="geometry"/>
                </mxCell>
                <mxCell id="kru6xRTg25A1OfZsXqoX-7" value="Wysyła formularz" style="ellipse;whiteSpace=wrap;html=1" parent="kru6xRTg25A1OfZsXqoX-1" vertex="1">
                    <mxGeometry x="740" y="370" width="120" height="60" as="geometry"/>
                </mxCell>
                <mxCell id="kru6xRTg25A1OfZsXqoX-85" style="edgeStyle=orthogonalEdgeStyle;rounded=0;orthogonalLoop=1;jettySize=auto;html=1;" parent="kru6xRTg25A1OfZsXqoX-1" source="kru6xRTg25A1OfZsXqoX-11" target="kru6xRTg25A1OfZsXqoX-77" edge="1">
                    <mxGeometry relative="1" as="geometry"/>
                </mxCell>
                <mxCell id="kru6xRTg25A1OfZsXqoX-11" value="&lt;div&gt;Walidacja formularza&lt;br&gt;&lt;/div&gt;" style="whiteSpace=wrap;html=1;" parent="kru6xRTg25A1OfZsXqoX-1" vertex="1">
                    <mxGeometry x="740" y="490" width="120" height="60" as="geometry"/>
                </mxCell>
                <mxCell id="kru6xRTg25A1OfZsXqoX-76" style="edgeStyle=orthogonalEdgeStyle;rounded=0;orthogonalLoop=1;jettySize=auto;html=1;entryX=0.5;entryY=0;entryDx=0;entryDy=0;" parent="kru6xRTg25A1OfZsXqoX-1" source="kru6xRTg25A1OfZsXqoX-13" target="kru6xRTg25A1OfZsXqoX-70" edge="1">
                    <mxGeometry relative="1" as="geometry"/>
                </mxCell>
                <mxCell id="kru6xRTg25A1OfZsXqoX-13" value="&lt;div&gt;Utworzenie dokumentu JSON&lt;/div&gt;&lt;div&gt;o&amp;nbsp; nazwie uniqeCode&lt;br&gt;&lt;/div&gt;" style="whiteSpace=wrap;html=1;" parent="kru6xRTg25A1OfZsXqoX-1" vertex="1">
                    <mxGeometry x="210" y="1080" width="120" height="60" as="geometry"/>
                </mxCell>
                <mxCell id="kru6xRTg25A1OfZsXqoX-15" value="GameCodes" style="swimlane;fontStyle=0;childLayout=stackLayout;horizontal=1;startSize=30;horizontalStack=0;resizeParent=1;resizeParentMax=0;resizeLast=0;collapsible=1;marginBottom=0;" parent="kru6xRTg25A1OfZsXqoX-1" vertex="1">
                    <mxGeometry x="580" y="1140" width="220" height="60" as="geometry">
                        <mxRectangle x="580" y="1140" width="100" height="30" as="alternateBounds"/>
                    </mxGeometry>
                </mxCell>
                <mxCell id="kru6xRTg25A1OfZsXqoX-16" value="gameCode(string) : uniqeCode(string)" style="text;strokeColor=none;fillColor=none;align=left;verticalAlign=middle;spacingLeft=4;spacingRight=4;overflow=hidden;points=[[0,0.5],[1,0.5]];portConstraint=eastwest;rotatable=0;" parent="kru6xRTg25A1OfZsXqoX-15" vertex="1">
                    <mxGeometry y="30" width="220" height="30" as="geometry"/>
                </mxCell>
                <mxCell id="kru6xRTg25A1OfZsXqoX-41" value="" style="edgeStyle=orthogonalEdgeStyle;rounded=0;orthogonalLoop=1;jettySize=auto;html=1;" parent="kru6xRTg25A1OfZsXqoX-1" source="kru6xRTg25A1OfZsXqoX-38" target="kru6xRTg25A1OfZsXqoX-40" edge="1">
                    <mxGeometry relative="1" as="geometry"/>
                </mxCell>
                <mxCell id="kru6xRTg25A1OfZsXqoX-45" style="edgeStyle=orthogonalEdgeStyle;rounded=0;orthogonalLoop=1;jettySize=auto;html=1;entryX=0.5;entryY=0;entryDx=0;entryDy=0;" parent="kru6xRTg25A1OfZsXqoX-1" source="kru6xRTg25A1OfZsXqoX-38" target="kru6xRTg25A1OfZsXqoX-13" edge="1">
                    <mxGeometry relative="1" as="geometry"/>
                </mxCell>
                <mxCell id="kru6xRTg25A1OfZsXqoX-101" style="edgeStyle=orthogonalEdgeStyle;rounded=0;orthogonalLoop=1;jettySize=auto;html=1;exitX=0.5;exitY=1;exitDx=0;exitDy=0;entryX=0;entryY=0.5;entryDx=0;entryDy=0;" parent="kru6xRTg25A1OfZsXqoX-1" source="kru6xRTg25A1OfZsXqoX-38" target="kru6xRTg25A1OfZsXqoX-95" edge="1">
                    <mxGeometry relative="1" as="geometry">
                        <mxPoint x="1030" y="1040" as="targetPoint"/>
                    </mxGeometry>
                </mxCell>
                <mxCell id="kru6xRTg25A1OfZsXqoX-38" value="Utworzenie unikalnej nazwy dla pliku konfiguracyjnego gry (uniqeCode)" style="whiteSpace=wrap;html=1;" parent="kru6xRTg25A1OfZsXqoX-1" vertex="1">
                    <mxGeometry x="210" y="970" width="120" height="60" as="geometry"/>
                </mxCell>
                <mxCell id="kru6xRTg25A1OfZsXqoX-51" style="edgeStyle=orthogonalEdgeStyle;rounded=0;orthogonalLoop=1;jettySize=auto;html=1;entryX=0.5;entryY=0;entryDx=0;entryDy=0;" parent="kru6xRTg25A1OfZsXqoX-1" source="kru6xRTg25A1OfZsXqoX-40" target="kru6xRTg25A1OfZsXqoX-15" edge="1">
                    <mxGeometry relative="1" as="geometry"/>
                </mxCell>
                <mxCell id="kru6xRTg25A1OfZsXqoX-40" value="Powiązanie gameCode i uniqeCode i dodanie do pliku GameCodes" style="whiteSpace=wrap;html=1;" parent="kru6xRTg25A1OfZsXqoX-1" vertex="1">
                    <mxGeometry x="380" y="1080" width="120" height="60" as="geometry"/>
                </mxCell>
                <mxCell id="kru6xRTg25A1OfZsXqoX-46" style="edgeStyle=orthogonalEdgeStyle;rounded=0;orthogonalLoop=1;jettySize=auto;html=1;entryX=0.5;entryY=0;entryDx=0;entryDy=0;" parent="kru6xRTg25A1OfZsXqoX-1" source="kru6xRTg25A1OfZsXqoX-42" target="kru6xRTg25A1OfZsXqoX-40" edge="1">
                    <mxGeometry relative="1" as="geometry"/>
                </mxCell>
                <mxCell id="kru6xRTg25A1OfZsXqoX-42" value="Utworzenie kodu dołączenia do gry (gameCode)" style="whiteSpace=wrap;html=1;" parent="kru6xRTg25A1OfZsXqoX-1" vertex="1">
                    <mxGeometry x="580" y="970" width="120" height="60" as="geometry"/>
                </mxCell>
                <mxCell id="kru6xRTg25A1OfZsXqoX-70" value="uniqeCode" style="swimlane;fontStyle=0;childLayout=stackLayout;horizontal=1;startSize=26;horizontalStack=0;resizeParent=1;resizeParentMax=0;resizeLast=0;collapsible=1;marginBottom=0;align=center;fontSize=14;" parent="kru6xRTg25A1OfZsXqoX-1" vertex="1">
                    <mxGeometry x="20" y="1140" width="170" height="146" as="geometry">
                        <mxRectangle x="20" y="1140" width="100" height="26" as="alternateBounds"/>
                    </mxGeometry>
                </mxCell>
                <mxCell id="kru6xRTg25A1OfZsXqoX-71" value="maxApple: number" style="text;strokeColor=none;fillColor=none;spacingLeft=4;spacingRight=4;overflow=hidden;rotatable=0;points=[[0,0.5],[1,0.5]];portConstraint=eastwest;fontSize=12;" parent="kru6xRTg25A1OfZsXqoX-70" vertex="1">
                    <mxGeometry y="26" width="170" height="30" as="geometry"/>
                </mxCell>
                <mxCell id="kru6xRTg25A1OfZsXqoX-72" value="maxPlayer: number" style="text;strokeColor=none;fillColor=none;spacingLeft=4;spacingRight=4;overflow=hidden;rotatable=0;points=[[0,0.5],[1,0.5]];portConstraint=eastwest;fontSize=12;" parent="kru6xRTg25A1OfZsXqoX-70" vertex="1">
                    <mxGeometry y="56" width="170" height="30" as="geometry"/>
                </mxCell>
                <mxCell id="kru6xRTg25A1OfZsXqoX-73" value="boardSize: string" style="text;strokeColor=none;fillColor=none;spacingLeft=4;spacingRight=4;overflow=hidden;rotatable=0;points=[[0,0.5],[1,0.5]];portConstraint=eastwest;fontSize=12;" parent="kru6xRTg25A1OfZsXqoX-70" vertex="1">
                    <mxGeometry y="86" width="170" height="30" as="geometry"/>
                </mxCell>
                <mxCell id="f176dmVJbRn9Ld7c5ou1-12" value="currentPlayer: number(def: 0)" style="text;strokeColor=none;fillColor=none;spacingLeft=4;spacingRight=4;overflow=hidden;rotatable=0;points=[[0,0.5],[1,0.5]];portConstraint=eastwest;fontSize=12;" parent="kru6xRTg25A1OfZsXqoX-70" vertex="1">
                    <mxGeometry y="116" width="170" height="30" as="geometry"/>
                </mxCell>
                <mxCell id="kru6xRTg25A1OfZsXqoX-90" style="edgeStyle=orthogonalEdgeStyle;rounded=0;orthogonalLoop=1;jettySize=auto;html=1;exitX=1;exitY=0.5;exitDx=0;exitDy=0;entryX=0.5;entryY=0;entryDx=0;entryDy=0;" parent="kru6xRTg25A1OfZsXqoX-1" source="kru6xRTg25A1OfZsXqoX-77" target="kru6xRTg25A1OfZsXqoX-83" edge="1">
                    <mxGeometry relative="1" as="geometry">
                        <Array as="points">
                            <mxPoint x="1120" y="655"/>
                            <mxPoint x="1120" y="760"/>
                            <mxPoint x="440" y="760"/>
                            <mxPoint x="440" y="850"/>
                        </Array>
                    </mxGeometry>
                </mxCell>
                <mxCell id="kru6xRTg25A1OfZsXqoX-91" style="edgeStyle=orthogonalEdgeStyle;rounded=0;orthogonalLoop=1;jettySize=auto;html=1;exitX=1;exitY=0.5;exitDx=0;exitDy=0;" parent="kru6xRTg25A1OfZsXqoX-1" source="kru6xRTg25A1OfZsXqoX-77" target="kru6xRTg25A1OfZsXqoX-88" edge="1">
                    <mxGeometry relative="1" as="geometry">
                        <mxPoint x="900" y="750" as="sourcePoint"/>
                    </mxGeometry>
                </mxCell>
                <mxCell id="f176dmVJbRn9Ld7c5ou1-37" value="" style="edgeStyle=orthogonalEdgeStyle;rounded=0;orthogonalLoop=1;jettySize=auto;html=1;startArrow=none;startFill=0;" parent="kru6xRTg25A1OfZsXqoX-1" source="kru6xRTg25A1OfZsXqoX-77" target="f176dmVJbRn9Ld7c5ou1-36" edge="1">
                    <mxGeometry relative="1" as="geometry"/>
                </mxCell>
                <mxCell id="kru6xRTg25A1OfZsXqoX-77" value="Formularz zweryfikowany?" style="rhombus;whiteSpace=wrap;html=1;" parent="kru6xRTg25A1OfZsXqoX-1" vertex="1">
                    <mxGeometry x="740" y="610" width="120" height="90" as="geometry"/>
                </mxCell>
                <mxCell id="kru6xRTg25A1OfZsXqoX-86" style="edgeStyle=orthogonalEdgeStyle;rounded=0;orthogonalLoop=1;jettySize=auto;html=1;entryX=0.5;entryY=0;entryDx=0;entryDy=0;" parent="kru6xRTg25A1OfZsXqoX-1" source="kru6xRTg25A1OfZsXqoX-83" target="kru6xRTg25A1OfZsXqoX-38" edge="1">
                    <mxGeometry relative="1" as="geometry"/>
                </mxCell>
                <mxCell id="kru6xRTg25A1OfZsXqoX-87" style="edgeStyle=orthogonalEdgeStyle;rounded=0;orthogonalLoop=1;jettySize=auto;html=1;entryX=0.5;entryY=0;entryDx=0;entryDy=0;" parent="kru6xRTg25A1OfZsXqoX-1" source="kru6xRTg25A1OfZsXqoX-83" target="kru6xRTg25A1OfZsXqoX-42" edge="1">
                    <mxGeometry relative="1" as="geometry"/>
                </mxCell>
                <mxCell id="kru6xRTg25A1OfZsXqoX-83" value="Obsługa pliku konfiguracyjnego" style="whiteSpace=wrap;html=1;" parent="kru6xRTg25A1OfZsXqoX-1" vertex="1">
                    <mxGeometry x="380" y="850" width="120" height="60" as="geometry"/>
                </mxCell>
                <mxCell id="kru6xRTg25A1OfZsXqoX-100" style="edgeStyle=orthogonalEdgeStyle;rounded=0;orthogonalLoop=1;jettySize=auto;html=1;entryX=0.5;entryY=0;entryDx=0;entryDy=0;" parent="kru6xRTg25A1OfZsXqoX-1" source="kru6xRTg25A1OfZsXqoX-88" target="kru6xRTg25A1OfZsXqoX-95" edge="1">
                    <mxGeometry relative="1" as="geometry">
                        <mxPoint x="1110" y="990" as="targetPoint"/>
                    </mxGeometry>
                </mxCell>
                <mxCell id="kru6xRTg25A1OfZsXqoX-88" value="Obsługa pokoi (socket.io)" style="whiteSpace=wrap;html=1;" parent="kru6xRTg25A1OfZsXqoX-1" vertex="1">
                    <mxGeometry x="1060" y="860" width="120" height="60" as="geometry"/>
                </mxCell>
                <mxCell id="f176dmVJbRn9Ld7c5ou1-44" style="edgeStyle=orthogonalEdgeStyle;rounded=0;orthogonalLoop=1;jettySize=auto;html=1;startArrow=none;startFill=0;" parent="kru6xRTg25A1OfZsXqoX-1" source="kru6xRTg25A1OfZsXqoX-92" target="f176dmVJbRn9Ld7c5ou1-15" edge="1">
                    <mxGeometry relative="1" as="geometry"/>
                </mxCell>
                <mxCell id="f176dmVJbRn9Ld7c5ou1-45" style="edgeStyle=orthogonalEdgeStyle;rounded=0;orthogonalLoop=1;jettySize=auto;html=1;entryX=0.5;entryY=0;entryDx=0;entryDy=0;startArrow=none;startFill=0;" parent="kru6xRTg25A1OfZsXqoX-1" source="kru6xRTg25A1OfZsXqoX-92" target="f176dmVJbRn9Ld7c5ou1-0" edge="1">
                    <mxGeometry relative="1" as="geometry"/>
                </mxCell>
                <mxCell id="kru6xRTg25A1OfZsXqoX-92" value="&lt;span&gt;Skonfigurowanie pokoju&lt;/span&gt;" style="whiteSpace=wrap;html=1;" parent="kru6xRTg25A1OfZsXqoX-1" vertex="1">
                    <mxGeometry x="1060" y="1130" width="120" height="60" as="geometry"/>
                </mxCell>
                <mxCell id="f176dmVJbRn9Ld7c5ou1-43" value="" style="edgeStyle=orthogonalEdgeStyle;rounded=0;orthogonalLoop=1;jettySize=auto;html=1;startArrow=none;startFill=0;" parent="kru6xRTg25A1OfZsXqoX-1" source="kru6xRTg25A1OfZsXqoX-95" target="kru6xRTg25A1OfZsXqoX-92" edge="1">
                    <mxGeometry relative="1" as="geometry"/>
                </mxCell>
                <mxCell id="kru6xRTg25A1OfZsXqoX-95" value="Dodanie gracza do pokoju o odpowiednim uniqeCode" style="whiteSpace=wrap;html=1;" parent="kru6xRTg25A1OfZsXqoX-1" vertex="1">
                    <mxGeometry x="1060" y="1020" width="120" height="60" as="geometry"/>
                </mxCell>
                <mxCell id="f176dmVJbRn9Ld7c5ou1-7" style="edgeStyle=orthogonalEdgeStyle;rounded=0;orthogonalLoop=1;jettySize=auto;html=1;entryX=0.5;entryY=0;entryDx=0;entryDy=0;" parent="kru6xRTg25A1OfZsXqoX-1" source="f176dmVJbRn9Ld7c5ou1-0" target="f176dmVJbRn9Ld7c5ou1-3" edge="1">
                    <mxGeometry relative="1" as="geometry">
                        <Array as="points">
                            <mxPoint x="1120" y="1400"/>
                            <mxPoint x="1020" y="1400"/>
                        </Array>
                    </mxGeometry>
                </mxCell>
                <mxCell id="fXNpWIg9UfjJ7yN0I49q-65" style="edgeStyle=orthogonalEdgeStyle;rounded=0;orthogonalLoop=1;jettySize=auto;html=1;entryX=0.5;entryY=0;entryDx=0;entryDy=0;" parent="kru6xRTg25A1OfZsXqoX-1" source="f176dmVJbRn9Ld7c5ou1-0" target="fXNpWIg9UfjJ7yN0I49q-61" edge="1">
                    <mxGeometry relative="1" as="geometry">
                        <Array as="points">
                            <mxPoint x="1120" y="1400"/>
                            <mxPoint x="1215" y="1400"/>
                        </Array>
                    </mxGeometry>
                </mxCell>
                <mxCell id="f176dmVJbRn9Ld7c5ou1-0" value="Wysłanie posiadanych danych do klienta" style="ellipse;whiteSpace=wrap;html=1;" parent="kru6xRTg25A1OfZsXqoX-1" vertex="1">
                    <mxGeometry x="1075" y="1286" width="90" height="90" as="geometry"/>
                </mxCell>
                <mxCell id="f176dmVJbRn9Ld7c5ou1-3" value="SetupData" style="swimlane;fontStyle=0;childLayout=stackLayout;horizontal=1;startSize=26;fillColor=none;horizontalStack=0;resizeParent=1;resizeParentMax=0;resizeLast=0;collapsible=1;marginBottom=0;" parent="kru6xRTg25A1OfZsXqoX-1" vertex="1">
                    <mxGeometry x="950" y="1468" width="140" height="104" as="geometry"/>
                </mxCell>
                <mxCell id="f176dmVJbRn9Ld7c5ou1-4" value="Apples" style="text;strokeColor=none;fillColor=none;align=left;verticalAlign=top;spacingLeft=4;spacingRight=4;overflow=hidden;rotatable=0;points=[[0,0.5],[1,0.5]];portConstraint=eastwest;" parent="f176dmVJbRn9Ld7c5ou1-3" vertex="1">
                    <mxGeometry y="26" width="140" height="26" as="geometry"/>
                </mxCell>
                <mxCell id="f176dmVJbRn9Ld7c5ou1-5" value="boardSize" style="text;strokeColor=none;fillColor=none;align=left;verticalAlign=top;spacingLeft=4;spacingRight=4;overflow=hidden;rotatable=0;points=[[0,0.5],[1,0.5]];portConstraint=eastwest;" parent="f176dmVJbRn9Ld7c5ou1-3" vertex="1">
                    <mxGeometry y="52" width="140" height="26" as="geometry"/>
                </mxCell>
                <mxCell id="f176dmVJbRn9Ld7c5ou1-6" value="playerPosition" style="text;strokeColor=none;fillColor=none;align=left;verticalAlign=top;spacingLeft=4;spacingRight=4;overflow=hidden;rotatable=0;points=[[0,0.5],[1,0.5]];portConstraint=eastwest;" parent="f176dmVJbRn9Ld7c5ou1-3" vertex="1">
                    <mxGeometry y="78" width="140" height="26" as="geometry"/>
                </mxCell>
                <mxCell id="f176dmVJbRn9Ld7c5ou1-17" style="edgeStyle=orthogonalEdgeStyle;rounded=0;orthogonalLoop=1;jettySize=auto;html=1;entryX=1;entryY=0.5;entryDx=0;entryDy=0;exitX=0;exitY=0.5;exitDx=0;exitDy=0;" parent="kru6xRTg25A1OfZsXqoX-1" source="f176dmVJbRn9Ld7c5ou1-15" target="f176dmVJbRn9Ld7c5ou1-12" edge="1">
                    <mxGeometry relative="1" as="geometry"/>
                </mxCell>
                <mxCell id="f176dmVJbRn9Ld7c5ou1-15" value="Zwiększenie ilości graczy o 1" style="whiteSpace=wrap;html=1;rounded=0;" parent="kru6xRTg25A1OfZsXqoX-1" vertex="1">
                    <mxGeometry x="865" y="1241" width="120" height="60" as="geometry"/>
                </mxCell>
                <mxCell id="f176dmVJbRn9Ld7c5ou1-23" value="" style="edgeStyle=orthogonalEdgeStyle;rounded=0;orthogonalLoop=1;jettySize=auto;html=1;" parent="kru6xRTg25A1OfZsXqoX-1" source="f176dmVJbRn9Ld7c5ou1-21" target="f176dmVJbRn9Ld7c5ou1-22" edge="1">
                    <mxGeometry relative="1" as="geometry"/>
                </mxCell>
                <mxCell id="f176dmVJbRn9Ld7c5ou1-21" value="Użytkownik dołącza do gotowej gry" style="ellipse;whiteSpace=wrap;html=1;" parent="kru6xRTg25A1OfZsXqoX-1" vertex="1">
                    <mxGeometry x="1535" y="120" width="120" height="80" as="geometry"/>
                </mxCell>
                <mxCell id="f176dmVJbRn9Ld7c5ou1-25" value="" style="edgeStyle=orthogonalEdgeStyle;rounded=0;orthogonalLoop=1;jettySize=auto;html=1;" parent="kru6xRTg25A1OfZsXqoX-1" source="f176dmVJbRn9Ld7c5ou1-22" target="f176dmVJbRn9Ld7c5ou1-24" edge="1">
                    <mxGeometry relative="1" as="geometry"/>
                </mxCell>
                <mxCell id="f176dmVJbRn9Ld7c5ou1-22" value="Podanie kodu dołączenia do gry" style="ellipse;whiteSpace=wrap;html=1;" parent="kru6xRTg25A1OfZsXqoX-1" vertex="1">
                    <mxGeometry x="1535" y="250" width="120" height="60" as="geometry"/>
                </mxCell>
                <mxCell id="f176dmVJbRn9Ld7c5ou1-47" style="edgeStyle=orthogonalEdgeStyle;rounded=0;orthogonalLoop=1;jettySize=auto;html=1;entryX=0.5;entryY=0;entryDx=0;entryDy=0;startArrow=none;startFill=0;" parent="kru6xRTg25A1OfZsXqoX-1" source="f176dmVJbRn9Ld7c5ou1-24" target="f176dmVJbRn9Ld7c5ou1-28" edge="1">
                    <mxGeometry relative="1" as="geometry"/>
                </mxCell>
                <mxCell id="f176dmVJbRn9Ld7c5ou1-24" value="Wysłanie prośby o dołączenie" style="ellipse;whiteSpace=wrap;html=1;" parent="kru6xRTg25A1OfZsXqoX-1" vertex="1">
                    <mxGeometry x="1535" y="380" width="120" height="60" as="geometry"/>
                </mxCell>
                <mxCell id="f176dmVJbRn9Ld7c5ou1-33" value="" style="edgeStyle=orthogonalEdgeStyle;rounded=0;orthogonalLoop=1;jettySize=auto;html=1;startArrow=none;startFill=0;entryX=0.5;entryY=0;entryDx=0;entryDy=0;" parent="kru6xRTg25A1OfZsXqoX-1" source="f176dmVJbRn9Ld7c5ou1-28" target="f176dmVJbRn9Ld7c5ou1-32" edge="1">
                    <mxGeometry relative="1" as="geometry"/>
                </mxCell>
                <mxCell id="f176dmVJbRn9Ld7c5ou1-48" style="edgeStyle=orthogonalEdgeStyle;rounded=0;orthogonalLoop=1;jettySize=auto;html=1;entryX=1;entryY=0.5;entryDx=0;entryDy=0;startArrow=classic;startFill=1;" parent="kru6xRTg25A1OfZsXqoX-1" source="f176dmVJbRn9Ld7c5ou1-28" target="kru6xRTg25A1OfZsXqoX-16" edge="1">
                    <mxGeometry relative="1" as="geometry">
                        <Array as="points">
                            <mxPoint x="1595" y="960"/>
                            <mxPoint x="880" y="960"/>
                            <mxPoint x="880" y="1185"/>
                        </Array>
                    </mxGeometry>
                </mxCell>
                <mxCell id="f176dmVJbRn9Ld7c5ou1-49" style="edgeStyle=orthogonalEdgeStyle;rounded=0;orthogonalLoop=1;jettySize=auto;html=1;entryX=1;entryY=0.5;entryDx=0;entryDy=0;startArrow=none;startFill=0;" parent="kru6xRTg25A1OfZsXqoX-1" source="f176dmVJbRn9Ld7c5ou1-28" target="kru6xRTg25A1OfZsXqoX-95" edge="1">
                    <mxGeometry relative="1" as="geometry">
                        <Array as="points">
                            <mxPoint x="1800" y="560"/>
                            <mxPoint x="1800" y="1050"/>
                        </Array>
                    </mxGeometry>
                </mxCell>
                <mxCell id="f176dmVJbRn9Ld7c5ou1-28" value="Czy uzyskano uniqeCode na podstawie gameCode?" style="rhombus;whiteSpace=wrap;html=1;" parent="kru6xRTg25A1OfZsXqoX-1" vertex="1">
                    <mxGeometry x="1500" y="490" width="190" height="140" as="geometry"/>
                </mxCell>
                <mxCell id="f176dmVJbRn9Ld7c5ou1-32" value="Zwrócenie klientowi komunikatu o błędzie" style="whiteSpace=wrap;html=1;" parent="kru6xRTg25A1OfZsXqoX-1" vertex="1">
                    <mxGeometry x="1340" y="630" width="120" height="60" as="geometry"/>
                </mxCell>
                <mxCell id="f176dmVJbRn9Ld7c5ou1-34" value="Nie" style="text;html=1;align=center;verticalAlign=middle;resizable=0;points=[];autosize=1;strokeColor=none;fillColor=none;" parent="kru6xRTg25A1OfZsXqoX-1" vertex="1">
                    <mxGeometry x="1400" y="540" width="30" height="20" as="geometry"/>
                </mxCell>
                <mxCell id="f176dmVJbRn9Ld7c5ou1-35" value="Tak" style="text;html=1;align=center;verticalAlign=middle;resizable=0;points=[];autosize=1;strokeColor=none;fillColor=none;" parent="kru6xRTg25A1OfZsXqoX-1" vertex="1">
                    <mxGeometry x="955" y="640" width="30" height="20" as="geometry"/>
                </mxCell>
                <mxCell id="f176dmVJbRn9Ld7c5ou1-36" value="Zwrócenie klientowi komunikatu o błędzie" style="whiteSpace=wrap;html=1;" parent="kru6xRTg25A1OfZsXqoX-1" vertex="1">
                    <mxGeometry x="510" y="625" width="120" height="60" as="geometry"/>
                </mxCell>
                <mxCell id="f176dmVJbRn9Ld7c5ou1-38" value="Nie" style="text;html=1;align=center;verticalAlign=middle;resizable=0;points=[];autosize=1;strokeColor=none;fillColor=none;" parent="kru6xRTg25A1OfZsXqoX-1" vertex="1">
                    <mxGeometry x="685" y="640" width="30" height="20" as="geometry"/>
                </mxCell>
                <mxCell id="f176dmVJbRn9Ld7c5ou1-41" value="Tak" style="text;html=1;align=center;verticalAlign=middle;resizable=0;points=[];autosize=1;strokeColor=none;fillColor=none;" parent="kru6xRTg25A1OfZsXqoX-1" vertex="1">
                    <mxGeometry x="1745" y="540" width="30" height="20" as="geometry"/>
                </mxCell>
                <mxCell id="f176dmVJbRn9Ld7c5ou1-52" value="" style="edgeStyle=orthogonalEdgeStyle;rounded=0;orthogonalLoop=1;jettySize=auto;html=1;startArrow=none;startFill=0;exitX=0.5;exitY=1;exitDx=0;exitDy=0;" parent="kru6xRTg25A1OfZsXqoX-1" source="f176dmVJbRn9Ld7c5ou1-50" target="f176dmVJbRn9Ld7c5ou1-51" edge="1">
                    <mxGeometry relative="1" as="geometry"/>
                </mxCell>
                <mxCell id="f176dmVJbRn9Ld7c5ou1-50" value="Użytkownik gra w grę" style="ellipse;whiteSpace=wrap;html=1;" parent="kru6xRTg25A1OfZsXqoX-1" vertex="1">
                    <mxGeometry x="1520" y="1690" width="120" height="80" as="geometry"/>
                </mxCell>
                <mxCell id="f176dmVJbRn9Ld7c5ou1-58" style="edgeStyle=orthogonalEdgeStyle;rounded=0;orthogonalLoop=1;jettySize=auto;html=1;entryX=0.5;entryY=0;entryDx=0;entryDy=0;startArrow=none;startFill=0;" parent="kru6xRTg25A1OfZsXqoX-1" source="f176dmVJbRn9Ld7c5ou1-51" target="f176dmVJbRn9Ld7c5ou1-53" edge="1">
                    <mxGeometry relative="1" as="geometry"/>
                </mxCell>
                <mxCell id="f176dmVJbRn9Ld7c5ou1-95" value="" style="edgeStyle=orthogonalEdgeStyle;rounded=0;orthogonalLoop=1;jettySize=auto;html=1;startArrow=none;startFill=0;entryX=0.5;entryY=0;entryDx=0;entryDy=0;" parent="kru6xRTg25A1OfZsXqoX-1" source="f176dmVJbRn9Ld7c5ou1-51" target="f176dmVJbRn9Ld7c5ou1-59" edge="1">
                    <mxGeometry relative="1" as="geometry">
                        <mxPoint x="890" y="1980" as="targetPoint"/>
                    </mxGeometry>
                </mxCell>
                <mxCell id="fXNpWIg9UfjJ7yN0I49q-16" style="edgeStyle=orthogonalEdgeStyle;rounded=0;orthogonalLoop=1;jettySize=auto;html=1;entryX=0.5;entryY=1;entryDx=0;entryDy=0;exitX=0.5;exitY=1;exitDx=0;exitDy=0;" parent="kru6xRTg25A1OfZsXqoX-1" source="f176dmVJbRn9Ld7c5ou1-51" target="fXNpWIg9UfjJ7yN0I49q-14" edge="1">
                    <mxGeometry relative="1" as="geometry">
                        <Array as="points">
                            <mxPoint x="890" y="2050"/>
                            <mxPoint x="1540" y="2050"/>
                            <mxPoint x="1540" y="2610"/>
                            <mxPoint x="1990" y="2610"/>
                        </Array>
                    </mxGeometry>
                </mxCell>
                <mxCell id="fXNpWIg9UfjJ7yN0I49q-171" style="edgeStyle=orthogonalEdgeStyle;rounded=0;orthogonalLoop=1;jettySize=auto;html=1;startArrow=classic;startFill=1;endArrow=none;endFill=0;" parent="kru6xRTg25A1OfZsXqoX-1" source="f176dmVJbRn9Ld7c5ou1-51" target="fXNpWIg9UfjJ7yN0I49q-170" edge="1">
                    <mxGeometry relative="1" as="geometry"/>
                </mxCell>
                <mxCell id="f176dmVJbRn9Ld7c5ou1-51" value="Kierunek ruchu wysyłany do pokoju" style="whiteSpace=wrap;html=1;" parent="kru6xRTg25A1OfZsXqoX-1" vertex="1">
                    <mxGeometry x="830" y="1910" width="120" height="60" as="geometry"/>
                </mxCell>
                <mxCell id="f176dmVJbRn9Ld7c5ou1-53" value="direction (string)" style="swimlane;fontStyle=0;childLayout=stackLayout;horizontal=1;startSize=26;horizontalStack=0;resizeParent=1;resizeParentMax=0;resizeLast=0;collapsible=1;marginBottom=0;align=center;fontSize=14;" parent="kru6xRTg25A1OfZsXqoX-1" vertex="1">
                    <mxGeometry x="570" y="1970" width="160" height="146" as="geometry"/>
                </mxCell>
                <mxCell id="f176dmVJbRn9Ld7c5ou1-54" value="Góra: 38" style="text;strokeColor=none;fillColor=none;spacingLeft=4;spacingRight=4;overflow=hidden;rotatable=0;points=[[0,0.5],[1,0.5]];portConstraint=eastwest;fontSize=12;" parent="f176dmVJbRn9Ld7c5ou1-53" vertex="1">
                    <mxGeometry y="26" width="160" height="30" as="geometry"/>
                </mxCell>
                <mxCell id="f176dmVJbRn9Ld7c5ou1-55" value="Dół: 40" style="text;strokeColor=none;fillColor=none;spacingLeft=4;spacingRight=4;overflow=hidden;rotatable=0;points=[[0,0.5],[1,0.5]];portConstraint=eastwest;fontSize=12;" parent="f176dmVJbRn9Ld7c5ou1-53" vertex="1">
                    <mxGeometry y="56" width="160" height="30" as="geometry"/>
                </mxCell>
                <mxCell id="f176dmVJbRn9Ld7c5ou1-56" value="Prawo: 39" style="text;strokeColor=none;fillColor=none;spacingLeft=4;spacingRight=4;overflow=hidden;rotatable=0;points=[[0,0.5],[1,0.5]];portConstraint=eastwest;fontSize=12;" parent="f176dmVJbRn9Ld7c5ou1-53" vertex="1">
                    <mxGeometry y="86" width="160" height="30" as="geometry"/>
                </mxCell>
                <mxCell id="f176dmVJbRn9Ld7c5ou1-57" value="Lewo: 37" style="text;strokeColor=none;fillColor=none;spacingLeft=4;spacingRight=4;overflow=hidden;rotatable=0;points=[[0,0.5],[1,0.5]];portConstraint=eastwest;fontSize=12;" parent="f176dmVJbRn9Ld7c5ou1-53" vertex="1">
                    <mxGeometry y="116" width="160" height="30" as="geometry"/>
                </mxCell>
                <mxCell id="f176dmVJbRn9Ld7c5ou1-62" value="" style="edgeStyle=orthogonalEdgeStyle;rounded=0;orthogonalLoop=1;jettySize=auto;html=1;startArrow=none;startFill=0;exitX=0.5;exitY=1;exitDx=0;exitDy=0;entryX=0.5;entryY=0;entryDx=0;entryDy=0;" parent="kru6xRTg25A1OfZsXqoX-1" source="f176dmVJbRn9Ld7c5ou1-59" target="f176dmVJbRn9Ld7c5ou1-61" edge="1">
                    <mxGeometry relative="1" as="geometry">
                        <Array as="points">
                            <mxPoint x="890" y="2220"/>
                            <mxPoint x="650" y="2220"/>
                        </Array>
                    </mxGeometry>
                </mxCell>
                <mxCell id="f176dmVJbRn9Ld7c5ou1-64" value="" style="edgeStyle=orthogonalEdgeStyle;rounded=0;orthogonalLoop=1;jettySize=auto;html=1;startArrow=none;startFill=0;exitX=0.5;exitY=1;exitDx=0;exitDy=0;entryX=0.5;entryY=0;entryDx=0;entryDy=0;" parent="kru6xRTg25A1OfZsXqoX-1" source="f176dmVJbRn9Ld7c5ou1-59" target="f176dmVJbRn9Ld7c5ou1-63" edge="1">
                    <mxGeometry relative="1" as="geometry">
                        <Array as="points">
                            <mxPoint x="890" y="2220"/>
                            <mxPoint x="990" y="2220"/>
                        </Array>
                    </mxGeometry>
                </mxCell>
                <mxCell id="f176dmVJbRn9Ld7c5ou1-67" value="" style="edgeStyle=orthogonalEdgeStyle;rounded=0;orthogonalLoop=1;jettySize=auto;html=1;startArrow=none;startFill=0;exitX=0.5;exitY=1;exitDx=0;exitDy=0;entryX=0.5;entryY=0;entryDx=0;entryDy=0;" parent="kru6xRTg25A1OfZsXqoX-1" source="f176dmVJbRn9Ld7c5ou1-59" target="f176dmVJbRn9Ld7c5ou1-66" edge="1">
                    <mxGeometry relative="1" as="geometry">
                        <Array as="points">
                            <mxPoint x="890" y="2220"/>
                            <mxPoint x="1340" y="2220"/>
                        </Array>
                    </mxGeometry>
                </mxCell>
                <mxCell id="f176dmVJbRn9Ld7c5ou1-59" value="Sprawdzanie kolizji" style="whiteSpace=wrap;html=1;" parent="kru6xRTg25A1OfZsXqoX-1" vertex="1">
                    <mxGeometry x="830" y="2100" width="120" height="60" as="geometry"/>
                </mxCell>
                <mxCell id="f176dmVJbRn9Ld7c5ou1-69" value="" style="edgeStyle=orthogonalEdgeStyle;rounded=0;orthogonalLoop=1;jettySize=auto;html=1;startArrow=none;startFill=0;" parent="kru6xRTg25A1OfZsXqoX-1" source="f176dmVJbRn9Ld7c5ou1-61" target="f176dmVJbRn9Ld7c5ou1-68" edge="1">
                    <mxGeometry relative="1" as="geometry"/>
                </mxCell>
                <mxCell id="f176dmVJbRn9Ld7c5ou1-61" value="Z jabłkiem" style="whiteSpace=wrap;html=1;" parent="kru6xRTg25A1OfZsXqoX-1" vertex="1">
                    <mxGeometry x="590" y="2250" width="120" height="60" as="geometry"/>
                </mxCell>
                <mxCell id="f176dmVJbRn9Ld7c5ou1-77" value="" style="edgeStyle=orthogonalEdgeStyle;rounded=0;orthogonalLoop=1;jettySize=auto;html=1;startArrow=none;startFill=0;" parent="kru6xRTg25A1OfZsXqoX-1" source="f176dmVJbRn9Ld7c5ou1-63" target="f176dmVJbRn9Ld7c5ou1-76" edge="1">
                    <mxGeometry relative="1" as="geometry"/>
                </mxCell>
                <mxCell id="f176dmVJbRn9Ld7c5ou1-63" value="Z graczami" style="whiteSpace=wrap;html=1;" parent="kru6xRTg25A1OfZsXqoX-1" vertex="1">
                    <mxGeometry x="930" y="2260" width="120" height="60" as="geometry"/>
                </mxCell>
                <mxCell id="f176dmVJbRn9Ld7c5ou1-81" value="" style="edgeStyle=orthogonalEdgeStyle;rounded=0;orthogonalLoop=1;jettySize=auto;html=1;startArrow=none;startFill=0;" parent="kru6xRTg25A1OfZsXqoX-1" source="f176dmVJbRn9Ld7c5ou1-66" target="f176dmVJbRn9Ld7c5ou1-80" edge="1">
                    <mxGeometry relative="1" as="geometry"/>
                </mxCell>
                <mxCell id="f176dmVJbRn9Ld7c5ou1-66" value="Z granicą mapy" style="whiteSpace=wrap;html=1;" parent="kru6xRTg25A1OfZsXqoX-1" vertex="1">
                    <mxGeometry x="1280" y="2260" width="120" height="60" as="geometry"/>
                </mxCell>
                <mxCell id="fXNpWIg9UfjJ7yN0I49q-39" style="edgeStyle=orthogonalEdgeStyle;rounded=0;orthogonalLoop=1;jettySize=auto;html=1;entryX=0.5;entryY=0;entryDx=0;entryDy=0;" parent="kru6xRTg25A1OfZsXqoX-1" source="f176dmVJbRn9Ld7c5ou1-68" target="fXNpWIg9UfjJ7yN0I49q-38" edge="1">
                    <mxGeometry relative="1" as="geometry"/>
                </mxCell>
                <mxCell id="fXNpWIg9UfjJ7yN0I49q-45" style="edgeStyle=orthogonalEdgeStyle;rounded=0;orthogonalLoop=1;jettySize=auto;html=1;entryX=0.5;entryY=1;entryDx=0;entryDy=0;" parent="kru6xRTg25A1OfZsXqoX-1" source="f176dmVJbRn9Ld7c5ou1-68" target="fXNpWIg9UfjJ7yN0I49q-27" edge="1">
                    <mxGeometry relative="1" as="geometry">
                        <Array as="points">
                            <mxPoint x="840" y="2430"/>
                            <mxPoint x="840" y="2840"/>
                            <mxPoint x="1760" y="2840"/>
                            <mxPoint x="1760" y="2730"/>
                            <mxPoint x="2550" y="2730"/>
                        </Array>
                    </mxGeometry>
                </mxCell>
                <mxCell id="f176dmVJbRn9Ld7c5ou1-68" value="wziął jabłko?" style="rhombus;whiteSpace=wrap;html=1;" parent="kru6xRTg25A1OfZsXqoX-1" vertex="1">
                    <mxGeometry x="610" y="2390" width="80" height="80" as="geometry"/>
                </mxCell>
                <mxCell id="f176dmVJbRn9Ld7c5ou1-72" value="Tak" style="text;html=1;align=center;verticalAlign=middle;resizable=0;points=[];autosize=1;strokeColor=none;fillColor=none;" parent="kru6xRTg25A1OfZsXqoX-1" vertex="1">
                    <mxGeometry x="720" y="2400" width="30" height="20" as="geometry"/>
                </mxCell>
                <mxCell id="fXNpWIg9UfjJ7yN0I49q-4" style="edgeStyle=orthogonalEdgeStyle;rounded=0;orthogonalLoop=1;jettySize=auto;html=1;entryX=0.5;entryY=0;entryDx=0;entryDy=0;exitX=0;exitY=0.5;exitDx=0;exitDy=0;" parent="kru6xRTg25A1OfZsXqoX-1" source="f176dmVJbRn9Ld7c5ou1-68" target="fXNpWIg9UfjJ7yN0I49q-1" edge="1">
                    <mxGeometry relative="1" as="geometry">
                        <mxPoint x="560.0588235294117" y="2560" as="sourcePoint"/>
                        <Array as="points">
                            <mxPoint x="560" y="2430"/>
                            <mxPoint x="560" y="2800"/>
                            <mxPoint x="1700" y="2800"/>
                            <mxPoint x="1700" y="1980"/>
                            <mxPoint x="2240" y="1980"/>
                        </Array>
                    </mxGeometry>
                </mxCell>
                <mxCell id="f176dmVJbRn9Ld7c5ou1-75" value="Nie" style="text;html=1;align=center;verticalAlign=middle;resizable=0;points=[];autosize=1;strokeColor=none;fillColor=none;" parent="kru6xRTg25A1OfZsXqoX-1" vertex="1">
                    <mxGeometry x="570" y="2410" width="30" height="20" as="geometry"/>
                </mxCell>
                <mxCell id="f176dmVJbRn9Ld7c5ou1-84" style="edgeStyle=orthogonalEdgeStyle;rounded=0;orthogonalLoop=1;jettySize=auto;html=1;entryX=0.5;entryY=0;entryDx=0;entryDy=0;startArrow=none;startFill=0;" parent="kru6xRTg25A1OfZsXqoX-1" source="f176dmVJbRn9Ld7c5ou1-76" target="f176dmVJbRn9Ld7c5ou1-82" edge="1">
                    <mxGeometry relative="1" as="geometry"/>
                </mxCell>
                <mxCell id="f176dmVJbRn9Ld7c5ou1-89" style="edgeStyle=orthogonalEdgeStyle;rounded=0;orthogonalLoop=1;jettySize=auto;html=1;startArrow=none;startFill=0;entryX=0.5;entryY=0;entryDx=0;entryDy=0;" parent="kru6xRTg25A1OfZsXqoX-1" source="f176dmVJbRn9Ld7c5ou1-76" target="f176dmVJbRn9Ld7c5ou1-87" edge="1">
                    <mxGeometry relative="1" as="geometry">
                        <mxPoint x="960" y="2680" as="targetPoint"/>
                        <Array as="points">
                            <mxPoint x="890" y="2430"/>
                            <mxPoint x="890" y="2640"/>
                            <mxPoint x="1020" y="2640"/>
                        </Array>
                    </mxGeometry>
                </mxCell>
                <mxCell id="f176dmVJbRn9Ld7c5ou1-76" value="Nastąpiła kolizja?" style="rhombus;whiteSpace=wrap;html=1;" parent="kru6xRTg25A1OfZsXqoX-1" vertex="1">
                    <mxGeometry x="950" y="2390" width="80" height="80" as="geometry"/>
                </mxCell>
                <mxCell id="f176dmVJbRn9Ld7c5ou1-83" value="" style="edgeStyle=orthogonalEdgeStyle;rounded=0;orthogonalLoop=1;jettySize=auto;html=1;startArrow=none;startFill=0;exitX=1;exitY=0.5;exitDx=0;exitDy=0;entryX=0.5;entryY=0;entryDx=0;entryDy=0;" parent="kru6xRTg25A1OfZsXqoX-1" source="f176dmVJbRn9Ld7c5ou1-80" target="fXNpWIg9UfjJ7yN0I49q-35" edge="1">
                    <mxGeometry relative="1" as="geometry">
                        <Array as="points">
                            <mxPoint x="1450" y="2430"/>
                            <mxPoint x="1450" y="2540"/>
                        </Array>
                    </mxGeometry>
                </mxCell>
                <mxCell id="f176dmVJbRn9Ld7c5ou1-88" style="edgeStyle=orthogonalEdgeStyle;rounded=0;orthogonalLoop=1;jettySize=auto;html=1;entryX=0.5;entryY=0;entryDx=0;entryDy=0;startArrow=none;startFill=0;exitX=0;exitY=0.5;exitDx=0;exitDy=0;" parent="kru6xRTg25A1OfZsXqoX-1" source="f176dmVJbRn9Ld7c5ou1-80" target="f176dmVJbRn9Ld7c5ou1-87" edge="1">
                    <mxGeometry relative="1" as="geometry">
                        <Array as="points">
                            <mxPoint x="1250" y="2430"/>
                            <mxPoint x="1250" y="2640"/>
                            <mxPoint x="1020" y="2640"/>
                        </Array>
                    </mxGeometry>
                </mxCell>
                <mxCell id="f176dmVJbRn9Ld7c5ou1-80" value="Nastapiła kolizja?" style="rhombus;whiteSpace=wrap;html=1;" parent="kru6xRTg25A1OfZsXqoX-1" vertex="1">
                    <mxGeometry x="1300" y="2390" width="80" height="80" as="geometry"/>
                </mxCell>
                <mxCell id="fXNpWIg9UfjJ7yN0I49q-67" style="edgeStyle=orthogonalEdgeStyle;rounded=0;orthogonalLoop=1;jettySize=auto;html=1;" parent="kru6xRTg25A1OfZsXqoX-1" source="f176dmVJbRn9Ld7c5ou1-82" target="fXNpWIg9UfjJ7yN0I49q-66" edge="1">
                    <mxGeometry relative="1" as="geometry">
                        <Array as="points">
                            <mxPoint x="1110" y="2620"/>
                            <mxPoint x="1270" y="2620"/>
                        </Array>
                    </mxGeometry>
                </mxCell>
                <mxCell id="f176dmVJbRn9Ld7c5ou1-82" value="Koniec gry" style="whiteSpace=wrap;html=1;" parent="kru6xRTg25A1OfZsXqoX-1" vertex="1">
                    <mxGeometry x="1050" y="2540" width="120" height="60" as="geometry"/>
                </mxCell>
                <mxCell id="f176dmVJbRn9Ld7c5ou1-85" value="Tak" style="text;html=1;align=center;verticalAlign=middle;resizable=0;points=[];autosize=1;strokeColor=none;fillColor=none;" parent="kru6xRTg25A1OfZsXqoX-1" vertex="1">
                    <mxGeometry x="1395" y="2410" width="30" height="20" as="geometry"/>
                </mxCell>
                <mxCell id="f176dmVJbRn9Ld7c5ou1-86" value="Tak" style="text;html=1;align=center;verticalAlign=middle;resizable=0;points=[];autosize=1;strokeColor=none;fillColor=none;" parent="kru6xRTg25A1OfZsXqoX-1" vertex="1">
                    <mxGeometry x="1065" y="2410" width="30" height="20" as="geometry"/>
                </mxCell>
                <mxCell id="fXNpWIg9UfjJ7yN0I49q-5" style="edgeStyle=orthogonalEdgeStyle;rounded=0;orthogonalLoop=1;jettySize=auto;html=1;entryX=0.5;entryY=0;entryDx=0;entryDy=0;exitX=0.5;exitY=1;exitDx=0;exitDy=0;" parent="kru6xRTg25A1OfZsXqoX-1" source="f176dmVJbRn9Ld7c5ou1-87" target="fXNpWIg9UfjJ7yN0I49q-1" edge="1">
                    <mxGeometry relative="1" as="geometry">
                        <Array as="points">
                            <mxPoint x="1295" y="2800"/>
                            <mxPoint x="1700" y="2800"/>
                            <mxPoint x="1700" y="1980"/>
                            <mxPoint x="2380" y="1980"/>
                        </Array>
                    </mxGeometry>
                </mxCell>
                <mxCell id="f176dmVJbRn9Ld7c5ou1-87" value="Gra trwa dalej" style="whiteSpace=wrap;html=1;" parent="kru6xRTg25A1OfZsXqoX-1" vertex="1">
                    <mxGeometry x="960" y="2690" width="120" height="60" as="geometry"/>
                </mxCell>
                <mxCell id="f176dmVJbRn9Ld7c5ou1-90" value="Nie" style="text;html=1;align=center;verticalAlign=middle;resizable=0;points=[];autosize=1;strokeColor=none;fillColor=none;" parent="kru6xRTg25A1OfZsXqoX-1" vertex="1">
                    <mxGeometry x="900" y="2410" width="30" height="20" as="geometry"/>
                </mxCell>
                <mxCell id="f176dmVJbRn9Ld7c5ou1-91" value="Nie" style="text;html=1;align=center;verticalAlign=middle;resizable=0;points=[];autosize=1;strokeColor=none;fillColor=none;" parent="kru6xRTg25A1OfZsXqoX-1" vertex="1">
                    <mxGeometry x="1255" y="2410" width="30" height="20" as="geometry"/>
                </mxCell>
                <mxCell id="fXNpWIg9UfjJ7yN0I49q-15" value="" style="edgeStyle=orthogonalEdgeStyle;rounded=0;orthogonalLoop=1;jettySize=auto;html=1;exitX=0.5;exitY=1;exitDx=0;exitDy=0;entryX=0.5;entryY=0;entryDx=0;entryDy=0;" parent="kru6xRTg25A1OfZsXqoX-1" source="fXNpWIg9UfjJ7yN0I49q-1" target="fXNpWIg9UfjJ7yN0I49q-50" edge="1">
                    <mxGeometry relative="1" as="geometry">
                        <mxPoint x="1980" y="2230" as="targetPoint"/>
                        <Array as="points">
                            <mxPoint x="2240" y="2210"/>
                            <mxPoint x="1990" y="2210"/>
                        </Array>
                    </mxGeometry>
                </mxCell>
                <mxCell id="fXNpWIg9UfjJ7yN0I49q-44" style="edgeStyle=orthogonalEdgeStyle;rounded=0;orthogonalLoop=1;jettySize=auto;html=1;" parent="kru6xRTg25A1OfZsXqoX-1" source="fXNpWIg9UfjJ7yN0I49q-1" target="fXNpWIg9UfjJ7yN0I49q-24" edge="1">
                    <mxGeometry relative="1" as="geometry">
                        <Array as="points">
                            <mxPoint x="2240" y="2210"/>
                            <mxPoint x="2550" y="2210"/>
                        </Array>
                    </mxGeometry>
                </mxCell>
                <mxCell id="fXNpWIg9UfjJ7yN0I49q-1" value="Obliczanie nowej pozycji wężą" style="whiteSpace=wrap;html=1;" parent="kru6xRTg25A1OfZsXqoX-1" vertex="1">
                    <mxGeometry x="2180" y="2116" width="120" height="60" as="geometry"/>
                </mxCell>
                <mxCell id="fXNpWIg9UfjJ7yN0I49q-18" value="" style="edgeStyle=orthogonalEdgeStyle;rounded=0;orthogonalLoop=1;jettySize=auto;html=1;" parent="kru6xRTg25A1OfZsXqoX-1" source="fXNpWIg9UfjJ7yN0I49q-14" target="fXNpWIg9UfjJ7yN0I49q-17" edge="1">
                    <mxGeometry relative="1" as="geometry"/>
                </mxCell>
                <mxCell id="fXNpWIg9UfjJ7yN0I49q-21" value="" style="edgeStyle=orthogonalEdgeStyle;rounded=0;orthogonalLoop=1;jettySize=auto;html=1;" parent="kru6xRTg25A1OfZsXqoX-1" source="fXNpWIg9UfjJ7yN0I49q-14" target="fXNpWIg9UfjJ7yN0I49q-20" edge="1">
                    <mxGeometry relative="1" as="geometry"/>
                </mxCell>
                <mxCell id="fXNpWIg9UfjJ7yN0I49q-14" value="Czy nastąpiłą zmiana kierunku?" style="rhombus;whiteSpace=wrap;html=1;" parent="kru6xRTg25A1OfZsXqoX-1" vertex="1">
                    <mxGeometry x="1920" y="2337.5" width="140" height="145" as="geometry"/>
                </mxCell>
                <mxCell id="fXNpWIg9UfjJ7yN0I49q-46" style="edgeStyle=orthogonalEdgeStyle;rounded=0;orthogonalLoop=1;jettySize=auto;html=1;" parent="kru6xRTg25A1OfZsXqoX-1" source="fXNpWIg9UfjJ7yN0I49q-17" target="fXNpWIg9UfjJ7yN0I49q-37" edge="1">
                    <mxGeometry relative="1" as="geometry">
                        <Array as="points">
                            <mxPoint x="1800" y="2680"/>
                            <mxPoint x="2250" y="2680"/>
                        </Array>
                    </mxGeometry>
                </mxCell>
                <mxCell id="fXNpWIg9UfjJ7yN0I49q-17" value="Wydłużenie pierwszego wektora o odpowiednią wartość" style="whiteSpace=wrap;html=1;" parent="kru6xRTg25A1OfZsXqoX-1" vertex="1">
                    <mxGeometry x="1740" y="2495" width="120" height="60" as="geometry"/>
                </mxCell>
                <mxCell id="fXNpWIg9UfjJ7yN0I49q-19" value="Nie" style="text;html=1;align=center;verticalAlign=middle;resizable=0;points=[];autosize=1;strokeColor=none;fillColor=none;" parent="kru6xRTg25A1OfZsXqoX-1" vertex="1">
                    <mxGeometry x="1850" y="2380" width="30" height="20" as="geometry"/>
                </mxCell>
                <mxCell id="fXNpWIg9UfjJ7yN0I49q-47" style="edgeStyle=orthogonalEdgeStyle;rounded=0;orthogonalLoop=1;jettySize=auto;html=1;entryX=0.5;entryY=0;entryDx=0;entryDy=0;" parent="kru6xRTg25A1OfZsXqoX-1" source="fXNpWIg9UfjJ7yN0I49q-20" target="fXNpWIg9UfjJ7yN0I49q-37" edge="1">
                    <mxGeometry relative="1" as="geometry">
                        <Array as="points">
                            <mxPoint x="2160" y="2680"/>
                            <mxPoint x="2250" y="2680"/>
                        </Array>
                    </mxGeometry>
                </mxCell>
                <mxCell id="fXNpWIg9UfjJ7yN0I49q-20" value="Dodanie nowego wektora na początek wężą" style="whiteSpace=wrap;html=1;" parent="kru6xRTg25A1OfZsXqoX-1" vertex="1">
                    <mxGeometry x="2100" y="2495" width="120" height="60" as="geometry"/>
                </mxCell>
                <mxCell id="fXNpWIg9UfjJ7yN0I49q-22" value="Tak" style="text;html=1;align=center;verticalAlign=middle;resizable=0;points=[];autosize=1;strokeColor=none;fillColor=none;" parent="kru6xRTg25A1OfZsXqoX-1" vertex="1">
                    <mxGeometry x="2095" y="2390" width="30" height="20" as="geometry"/>
                </mxCell>
                <mxCell id="fXNpWIg9UfjJ7yN0I49q-28" value="" style="edgeStyle=orthogonalEdgeStyle;rounded=0;orthogonalLoop=1;jettySize=auto;html=1;" parent="kru6xRTg25A1OfZsXqoX-1" source="fXNpWIg9UfjJ7yN0I49q-24" target="fXNpWIg9UfjJ7yN0I49q-27" edge="1">
                    <mxGeometry relative="1" as="geometry"/>
                </mxCell>
                <mxCell id="fXNpWIg9UfjJ7yN0I49q-24" value="Modyfikacja ostatniego wektora" style="whiteSpace=wrap;html=1;" parent="kru6xRTg25A1OfZsXqoX-1" vertex="1">
                    <mxGeometry x="2490" y="2225" width="120" height="60" as="geometry"/>
                </mxCell>
                <mxCell id="fXNpWIg9UfjJ7yN0I49q-30" value="" style="edgeStyle=orthogonalEdgeStyle;rounded=0;orthogonalLoop=1;jettySize=auto;html=1;" parent="kru6xRTg25A1OfZsXqoX-1" source="fXNpWIg9UfjJ7yN0I49q-27" target="fXNpWIg9UfjJ7yN0I49q-29" edge="1">
                    <mxGeometry relative="1" as="geometry"/>
                </mxCell>
                <mxCell id="fXNpWIg9UfjJ7yN0I49q-32" value="" style="edgeStyle=orthogonalEdgeStyle;rounded=0;orthogonalLoop=1;jettySize=auto;html=1;" parent="kru6xRTg25A1OfZsXqoX-1" source="fXNpWIg9UfjJ7yN0I49q-27" target="fXNpWIg9UfjJ7yN0I49q-31" edge="1">
                    <mxGeometry relative="1" as="geometry"/>
                </mxCell>
                <mxCell id="fXNpWIg9UfjJ7yN0I49q-27" value="Czy jabłko zostało wzięte?" style="rhombus;whiteSpace=wrap;html=1;" parent="kru6xRTg25A1OfZsXqoX-1" vertex="1">
                    <mxGeometry x="2485" y="2355" width="130" height="120" as="geometry"/>
                </mxCell>
                <mxCell id="fXNpWIg9UfjJ7yN0I49q-49" style="edgeStyle=orthogonalEdgeStyle;rounded=0;orthogonalLoop=1;jettySize=auto;html=1;entryX=0.5;entryY=0;entryDx=0;entryDy=0;" parent="kru6xRTg25A1OfZsXqoX-1" source="fXNpWIg9UfjJ7yN0I49q-29" target="fXNpWIg9UfjJ7yN0I49q-37" edge="1">
                    <mxGeometry relative="1" as="geometry">
                        <Array as="points">
                            <mxPoint x="2760" y="2680"/>
                            <mxPoint x="2250" y="2680"/>
                        </Array>
                    </mxGeometry>
                </mxCell>
                <mxCell id="fXNpWIg9UfjJ7yN0I49q-29" value="Nie modyfikuj ostatniego wektora" style="whiteSpace=wrap;html=1;" parent="kru6xRTg25A1OfZsXqoX-1" vertex="1">
                    <mxGeometry x="2700" y="2495" width="120" height="60" as="geometry"/>
                </mxCell>
                <mxCell id="fXNpWIg9UfjJ7yN0I49q-48" style="edgeStyle=orthogonalEdgeStyle;rounded=0;orthogonalLoop=1;jettySize=auto;html=1;" parent="kru6xRTg25A1OfZsXqoX-1" source="fXNpWIg9UfjJ7yN0I49q-31" target="fXNpWIg9UfjJ7yN0I49q-37" edge="1">
                    <mxGeometry relative="1" as="geometry">
                        <Array as="points">
                            <mxPoint x="2330" y="2680"/>
                            <mxPoint x="2250" y="2680"/>
                        </Array>
                    </mxGeometry>
                </mxCell>
                <mxCell id="fXNpWIg9UfjJ7yN0I49q-31" value="Skróć ostatni wektor i przesuń punkt początkowy zgodnie z ruchem wektora" style="whiteSpace=wrap;html=1;" parent="kru6xRTg25A1OfZsXqoX-1" vertex="1">
                    <mxGeometry x="2260" y="2495" width="120" height="60" as="geometry"/>
                </mxCell>
                <mxCell id="fXNpWIg9UfjJ7yN0I49q-33" value="Nie" style="text;html=1;align=center;verticalAlign=middle;resizable=0;points=[];autosize=1;strokeColor=none;fillColor=none;" parent="kru6xRTg25A1OfZsXqoX-1" vertex="1">
                    <mxGeometry x="2355" y="2395" width="30" height="20" as="geometry"/>
                </mxCell>
                <mxCell id="fXNpWIg9UfjJ7yN0I49q-34" value="Tak" style="text;html=1;align=center;verticalAlign=middle;resizable=0;points=[];autosize=1;strokeColor=none;fillColor=none;" parent="kru6xRTg25A1OfZsXqoX-1" vertex="1">
                    <mxGeometry x="2670" y="2395" width="30" height="20" as="geometry"/>
                </mxCell>
                <mxCell id="fXNpWIg9UfjJ7yN0I49q-68" style="edgeStyle=orthogonalEdgeStyle;rounded=0;orthogonalLoop=1;jettySize=auto;html=1;entryX=0.5;entryY=0;entryDx=0;entryDy=0;" parent="kru6xRTg25A1OfZsXqoX-1" source="fXNpWIg9UfjJ7yN0I49q-35" target="fXNpWIg9UfjJ7yN0I49q-66" edge="1">
                    <mxGeometry relative="1" as="geometry">
                        <Array as="points">
                            <mxPoint x="1450" y="2620"/>
                            <mxPoint x="1270" y="2620"/>
                        </Array>
                    </mxGeometry>
                </mxCell>
                <mxCell id="fXNpWIg9UfjJ7yN0I49q-35" value="Koniec gry" style="whiteSpace=wrap;html=1;" parent="kru6xRTg25A1OfZsXqoX-1" vertex="1">
                    <mxGeometry x="1390" y="2540" width="120" height="60" as="geometry"/>
                </mxCell>
                <mxCell id="fXNpWIg9UfjJ7yN0I49q-153" style="edgeStyle=orthogonalEdgeStyle;rounded=0;orthogonalLoop=1;jettySize=auto;html=1;" parent="kru6xRTg25A1OfZsXqoX-1" source="fXNpWIg9UfjJ7yN0I49q-37" target="fXNpWIg9UfjJ7yN0I49q-150" edge="1">
                    <mxGeometry relative="1" as="geometry">
                        <Array as="points">
                            <mxPoint x="2250" y="2930"/>
                            <mxPoint x="2135" y="2930"/>
                        </Array>
                    </mxGeometry>
                </mxCell>
                <mxCell id="fXNpWIg9UfjJ7yN0I49q-154" style="edgeStyle=orthogonalEdgeStyle;rounded=0;orthogonalLoop=1;jettySize=auto;html=1;" parent="kru6xRTg25A1OfZsXqoX-1" source="fXNpWIg9UfjJ7yN0I49q-37" target="fXNpWIg9UfjJ7yN0I49q-142" edge="1">
                    <mxGeometry relative="1" as="geometry">
                        <Array as="points">
                            <mxPoint x="2250" y="2930"/>
                            <mxPoint x="2380" y="2930"/>
                        </Array>
                    </mxGeometry>
                </mxCell>
                <mxCell id="fXNpWIg9UfjJ7yN0I49q-37" value="Przesłanie instrukcji do rysowania węży do pokoju" style="whiteSpace=wrap;html=1;" parent="kru6xRTg25A1OfZsXqoX-1" vertex="1">
                    <mxGeometry x="2190" y="2810" width="120" height="60" as="geometry"/>
                </mxCell>
                <mxCell id="fXNpWIg9UfjJ7yN0I49q-41" value="" style="edgeStyle=orthogonalEdgeStyle;rounded=0;orthogonalLoop=1;jettySize=auto;html=1;" parent="kru6xRTg25A1OfZsXqoX-1" source="fXNpWIg9UfjJ7yN0I49q-38" target="fXNpWIg9UfjJ7yN0I49q-40" edge="1">
                    <mxGeometry relative="1" as="geometry"/>
                </mxCell>
                <mxCell id="fXNpWIg9UfjJ7yN0I49q-38" value="Wygeneruj nowe jabłko" style="whiteSpace=wrap;html=1;" parent="kru6xRTg25A1OfZsXqoX-1" vertex="1">
                    <mxGeometry x="700" y="2550" width="120" height="60" as="geometry"/>
                </mxCell>
                <mxCell id="fXNpWIg9UfjJ7yN0I49q-136" style="edgeStyle=orthogonalEdgeStyle;rounded=0;orthogonalLoop=1;jettySize=auto;html=1;" parent="kru6xRTg25A1OfZsXqoX-1" source="fXNpWIg9UfjJ7yN0I49q-40" target="fXNpWIg9UfjJ7yN0I49q-134" edge="1">
                    <mxGeometry relative="1" as="geometry"/>
                </mxCell>
                <mxCell id="fXNpWIg9UfjJ7yN0I49q-40" value="Wyślij pozycję nowego jabłka do pokoju" style="whiteSpace=wrap;html=1;" parent="kru6xRTg25A1OfZsXqoX-1" vertex="1">
                    <mxGeometry x="700" y="2700" width="120" height="60" as="geometry"/>
                </mxCell>
                <mxCell id="fXNpWIg9UfjJ7yN0I49q-51" style="edgeStyle=orthogonalEdgeStyle;rounded=0;orthogonalLoop=1;jettySize=auto;html=1;entryX=0.5;entryY=0;entryDx=0;entryDy=0;" parent="kru6xRTg25A1OfZsXqoX-1" source="fXNpWIg9UfjJ7yN0I49q-50" target="fXNpWIg9UfjJ7yN0I49q-14" edge="1">
                    <mxGeometry relative="1" as="geometry"/>
                </mxCell>
                <mxCell id="fXNpWIg9UfjJ7yN0I49q-50" value="Modyfikacja pierwszego wektora" style="whiteSpace=wrap;html=1;" parent="kru6xRTg25A1OfZsXqoX-1" vertex="1">
                    <mxGeometry x="1930" y="2240" width="120" height="60" as="geometry"/>
                </mxCell>
                <mxCell id="fXNpWIg9UfjJ7yN0I49q-55" style="edgeStyle=orthogonalEdgeStyle;rounded=0;orthogonalLoop=1;jettySize=auto;html=1;entryX=0.5;entryY=0;entryDx=0;entryDy=0;" parent="kru6xRTg25A1OfZsXqoX-1" source="fXNpWIg9UfjJ7yN0I49q-52" target="fXNpWIg9UfjJ7yN0I49q-56" edge="1">
                    <mxGeometry relative="1" as="geometry">
                        <mxPoint x="3280" y="2199.9999999999995" as="targetPoint"/>
                        <Array as="points">
                            <mxPoint x="3610" y="2160"/>
                            <mxPoint x="3380" y="2160"/>
                        </Array>
                    </mxGeometry>
                </mxCell>
                <mxCell id="fXNpWIg9UfjJ7yN0I49q-57" style="edgeStyle=orthogonalEdgeStyle;rounded=0;orthogonalLoop=1;jettySize=auto;html=1;entryX=0.5;entryY=0;entryDx=0;entryDy=0;" parent="kru6xRTg25A1OfZsXqoX-1" source="fXNpWIg9UfjJ7yN0I49q-52" target="fXNpWIg9UfjJ7yN0I49q-58" edge="1">
                    <mxGeometry relative="1" as="geometry">
                        <mxPoint x="3610" y="2210" as="targetPoint"/>
                    </mxGeometry>
                </mxCell>
                <mxCell id="fXNpWIg9UfjJ7yN0I49q-60" value="" style="edgeStyle=orthogonalEdgeStyle;rounded=0;orthogonalLoop=1;jettySize=auto;html=1;entryX=0.5;entryY=0;entryDx=0;entryDy=0;" parent="kru6xRTg25A1OfZsXqoX-1" source="fXNpWIg9UfjJ7yN0I49q-52" target="fXNpWIg9UfjJ7yN0I49q-59" edge="1">
                    <mxGeometry relative="1" as="geometry">
                        <Array as="points">
                            <mxPoint x="3610" y="2160"/>
                            <mxPoint x="4085" y="2160"/>
                        </Array>
                    </mxGeometry>
                </mxCell>
                <mxCell id="fXNpWIg9UfjJ7yN0I49q-74" style="edgeStyle=orthogonalEdgeStyle;rounded=0;orthogonalLoop=1;jettySize=auto;html=1;entryX=0.5;entryY=0;entryDx=0;entryDy=0;" parent="kru6xRTg25A1OfZsXqoX-1" source="fXNpWIg9UfjJ7yN0I49q-52" target="fXNpWIg9UfjJ7yN0I49q-75" edge="1">
                    <mxGeometry relative="1" as="geometry">
                        <mxPoint x="3150" y="2220" as="targetPoint"/>
                        <Array as="points">
                            <mxPoint x="3610" y="2160"/>
                            <mxPoint x="3150" y="2160"/>
                        </Array>
                    </mxGeometry>
                </mxCell>
                <mxCell id="fXNpWIg9UfjJ7yN0I49q-97" value="" style="edgeStyle=orthogonalEdgeStyle;rounded=0;orthogonalLoop=1;jettySize=auto;html=1;" parent="kru6xRTg25A1OfZsXqoX-1" source="fXNpWIg9UfjJ7yN0I49q-52" target="fXNpWIg9UfjJ7yN0I49q-96" edge="1">
                    <mxGeometry relative="1" as="geometry">
                        <Array as="points">
                            <mxPoint x="3610" y="2160"/>
                            <mxPoint x="3840" y="2160"/>
                        </Array>
                    </mxGeometry>
                </mxCell>
                <mxCell id="fXNpWIg9UfjJ7yN0I49q-52" value="Klient odbiera dane z serwera" style="ellipse;whiteSpace=wrap;html=1;" parent="kru6xRTg25A1OfZsXqoX-1" vertex="1">
                    <mxGeometry x="3550" y="2010" width="120" height="60" as="geometry"/>
                </mxCell>
                <mxCell id="fXNpWIg9UfjJ7yN0I49q-73" value="" style="edgeStyle=orthogonalEdgeStyle;rounded=0;orthogonalLoop=1;jettySize=auto;html=1;" parent="kru6xRTg25A1OfZsXqoX-1" source="fXNpWIg9UfjJ7yN0I49q-56" target="fXNpWIg9UfjJ7yN0I49q-72" edge="1">
                    <mxGeometry relative="1" as="geometry"/>
                </mxCell>
                <mxCell id="fXNpWIg9UfjJ7yN0I49q-56" value="Jabłko" style="whiteSpace=wrap;html=1;" parent="kru6xRTg25A1OfZsXqoX-1" vertex="1">
                    <mxGeometry x="3320" y="2225" width="120" height="60" as="geometry"/>
                </mxCell>
                <mxCell id="fXNpWIg9UfjJ7yN0I49q-83" value="" style="edgeStyle=orthogonalEdgeStyle;rounded=0;orthogonalLoop=1;jettySize=auto;html=1;" parent="kru6xRTg25A1OfZsXqoX-1" source="fXNpWIg9UfjJ7yN0I49q-58" target="fXNpWIg9UfjJ7yN0I49q-82" edge="1">
                    <mxGeometry relative="1" as="geometry"/>
                </mxCell>
                <mxCell id="fXNpWIg9UfjJ7yN0I49q-58" value="Koniec gry" style="whiteSpace=wrap;html=1;" parent="kru6xRTg25A1OfZsXqoX-1" vertex="1">
                    <mxGeometry x="3550" y="2225" width="120" height="60" as="geometry"/>
                </mxCell>
                <mxCell id="fXNpWIg9UfjJ7yN0I49q-168" value="" style="edgeStyle=orthogonalEdgeStyle;rounded=0;orthogonalLoop=1;jettySize=auto;html=1;" parent="kru6xRTg25A1OfZsXqoX-1" source="fXNpWIg9UfjJ7yN0I49q-59" target="fXNpWIg9UfjJ7yN0I49q-167" edge="1">
                    <mxGeometry relative="1" as="geometry"/>
                </mxCell>
                <mxCell id="fXNpWIg9UfjJ7yN0I49q-59" value="Rysowanie węży" style="whiteSpace=wrap;html=1;" parent="kru6xRTg25A1OfZsXqoX-1" vertex="1">
                    <mxGeometry x="4025" y="2225" width="120" height="60" as="geometry"/>
                </mxCell>
                <mxCell id="fXNpWIg9UfjJ7yN0I49q-61" value="NewPlayer" style="swimlane;fontStyle=0;childLayout=stackLayout;horizontal=1;startSize=30;horizontalStack=0;resizeParent=1;resizeParentMax=0;resizeLast=0;collapsible=1;marginBottom=0;" parent="kru6xRTg25A1OfZsXqoX-1" vertex="1">
                    <mxGeometry x="1145" y="1468" width="140" height="90" as="geometry"/>
                </mxCell>
                <mxCell id="fXNpWIg9UfjJ7yN0I49q-78" value="" style="shape=table;startSize=0;container=1;collapsible=1;childLayout=tableLayout;fixedRows=1;rowLines=0;fontStyle=0;align=center;resizeLast=1;strokeColor=none;fillColor=none;collapsible=0;" parent="fXNpWIg9UfjJ7yN0I49q-61" vertex="1">
                    <mxGeometry y="30" width="140" height="30" as="geometry"/>
                </mxCell>
                <mxCell id="fXNpWIg9UfjJ7yN0I49q-79" value="" style="shape=tableRow;horizontal=0;startSize=0;swimlaneHead=0;swimlaneBody=0;fillColor=none;collapsible=0;dropTarget=0;points=[[0,0.5],[1,0.5]];portConstraint=eastwest;top=0;left=0;right=0;bottom=0;" parent="fXNpWIg9UfjJ7yN0I49q-78" vertex="1">
                    <mxGeometry width="140" height="30" as="geometry"/>
                </mxCell>
                <mxCell id="fXNpWIg9UfjJ7yN0I49q-80" value="ID" style="shape=partialRectangle;connectable=0;fillColor=none;top=0;left=0;bottom=0;right=0;fontStyle=0;overflow=hidden;" parent="fXNpWIg9UfjJ7yN0I49q-79" vertex="1">
                    <mxGeometry width="30" height="30" as="geometry">
                        <mxRectangle width="30" height="30" as="alternateBounds"/>
                    </mxGeometry>
                </mxCell>
                <mxCell id="fXNpWIg9UfjJ7yN0I49q-81" value="SnakeId" style="shape=partialRectangle;connectable=0;fillColor=none;top=0;left=0;bottom=0;right=0;align=left;spacingLeft=6;fontStyle=0;overflow=hidden;" parent="fXNpWIg9UfjJ7yN0I49q-79" vertex="1">
                    <mxGeometry x="30" width="110" height="30" as="geometry">
                        <mxRectangle width="110" height="30" as="alternateBounds"/>
                    </mxGeometry>
                </mxCell>
                <mxCell id="fXNpWIg9UfjJ7yN0I49q-62" value="Color" style="text;strokeColor=none;fillColor=none;align=left;verticalAlign=middle;spacingLeft=4;spacingRight=4;overflow=hidden;points=[[0,0.5],[1,0.5]];portConstraint=eastwest;rotatable=0;" parent="fXNpWIg9UfjJ7yN0I49q-61" vertex="1">
                    <mxGeometry y="60" width="140" height="30" as="geometry"/>
                </mxCell>
                <mxCell id="fXNpWIg9UfjJ7yN0I49q-71" value="" style="edgeStyle=orthogonalEdgeStyle;rounded=0;orthogonalLoop=1;jettySize=auto;html=1;" parent="kru6xRTg25A1OfZsXqoX-1" source="fXNpWIg9UfjJ7yN0I49q-66" target="fXNpWIg9UfjJ7yN0I49q-70" edge="1">
                    <mxGeometry relative="1" as="geometry"/>
                </mxCell>
                <mxCell id="fXNpWIg9UfjJ7yN0I49q-66" value="Wysłanie informacji do pokoju" style="whiteSpace=wrap;html=1;" parent="kru6xRTg25A1OfZsXqoX-1" vertex="1">
                    <mxGeometry x="1210" y="2680" width="120" height="60" as="geometry"/>
                </mxCell>
                <mxCell id="fXNpWIg9UfjJ7yN0I49q-140" style="edgeStyle=orthogonalEdgeStyle;rounded=0;orthogonalLoop=1;jettySize=auto;html=1;" parent="kru6xRTg25A1OfZsXqoX-1" source="fXNpWIg9UfjJ7yN0I49q-70" target="fXNpWIg9UfjJ7yN0I49q-138" edge="1">
                    <mxGeometry relative="1" as="geometry"/>
                </mxCell>
                <mxCell id="fXNpWIg9UfjJ7yN0I49q-70" value="Wysłanei wektorów, które mają być usunięte" style="whiteSpace=wrap;html=1;" parent="kru6xRTg25A1OfZsXqoX-1" vertex="1">
                    <mxGeometry x="1210" y="2900" width="120" height="60" as="geometry"/>
                </mxCell>
                <mxCell id="fXNpWIg9UfjJ7yN0I49q-125" style="edgeStyle=orthogonalEdgeStyle;rounded=0;orthogonalLoop=1;jettySize=auto;html=1;" parent="kru6xRTg25A1OfZsXqoX-1" source="fXNpWIg9UfjJ7yN0I49q-72" target="fXNpWIg9UfjJ7yN0I49q-121" edge="1">
                    <mxGeometry relative="1" as="geometry"/>
                </mxCell>
                <mxCell id="fXNpWIg9UfjJ7yN0I49q-72" value="Jabłko jest rysowane w nowych współrzędnych" style="whiteSpace=wrap;html=1;" parent="kru6xRTg25A1OfZsXqoX-1" vertex="1">
                    <mxGeometry x="3320" y="2360" width="120" height="60" as="geometry"/>
                </mxCell>
                <mxCell id="fXNpWIg9UfjJ7yN0I49q-77" value="" style="edgeStyle=orthogonalEdgeStyle;rounded=0;orthogonalLoop=1;jettySize=auto;html=1;" parent="kru6xRTg25A1OfZsXqoX-1" source="fXNpWIg9UfjJ7yN0I49q-75" target="fXNpWIg9UfjJ7yN0I49q-76" edge="1">
                    <mxGeometry relative="1" as="geometry"/>
                </mxCell>
                <mxCell id="fXNpWIg9UfjJ7yN0I49q-75" value="Nowy gracz dołącza" style="whiteSpace=wrap;html=1;" parent="kru6xRTg25A1OfZsXqoX-1" vertex="1">
                    <mxGeometry x="3090" y="2225" width="120" height="60" as="geometry"/>
                </mxCell>
                <mxCell id="fXNpWIg9UfjJ7yN0I49q-133" style="edgeStyle=orthogonalEdgeStyle;rounded=0;orthogonalLoop=1;jettySize=auto;html=1;" parent="kru6xRTg25A1OfZsXqoX-1" source="fXNpWIg9UfjJ7yN0I49q-76" target="fXNpWIg9UfjJ7yN0I49q-127" edge="1">
                    <mxGeometry relative="1" as="geometry"/>
                </mxCell>
                <mxCell id="fXNpWIg9UfjJ7yN0I49q-76" value="Stworzenie podręcznego podstawowego elementu węża" style="whiteSpace=wrap;html=1;" parent="kru6xRTg25A1OfZsXqoX-1" vertex="1">
                    <mxGeometry x="3090" y="2360" width="120" height="60" as="geometry"/>
                </mxCell>
                <mxCell id="fXNpWIg9UfjJ7yN0I49q-126" style="edgeStyle=orthogonalEdgeStyle;rounded=0;orthogonalLoop=1;jettySize=auto;html=1;entryX=0.5;entryY=0;entryDx=0;entryDy=0;" parent="kru6xRTg25A1OfZsXqoX-1" source="fXNpWIg9UfjJ7yN0I49q-82" target="fXNpWIg9UfjJ7yN0I49q-117" edge="1">
                    <mxGeometry relative="1" as="geometry"/>
                </mxCell>
                <mxCell id="fXNpWIg9UfjJ7yN0I49q-82" value="Zamalowanie wskazanych wektorów odpowiedniego wężą" style="whiteSpace=wrap;html=1;" parent="kru6xRTg25A1OfZsXqoX-1" vertex="1">
                    <mxGeometry x="3550" y="2360" width="120" height="60" as="geometry"/>
                </mxCell>
                <mxCell id="fXNpWIg9UfjJ7yN0I49q-92" value="SnakeToDraw" style="swimlane;fontStyle=0;childLayout=stackLayout;horizontal=1;startSize=26;horizontalStack=0;resizeParent=1;resizeParentMax=0;resizeLast=0;collapsible=1;marginBottom=0;align=center;fontSize=14;" parent="kru6xRTg25A1OfZsXqoX-1" vertex="1">
                    <mxGeometry x="4025" y="2495" width="120" height="86" as="geometry"/>
                </mxCell>
                <mxCell id="fXNpWIg9UfjJ7yN0I49q-112" value="" style="shape=table;startSize=0;container=1;collapsible=1;childLayout=tableLayout;fixedRows=1;rowLines=0;fontStyle=0;align=center;resizeLast=1;strokeColor=none;fillColor=none;collapsible=0;" parent="fXNpWIg9UfjJ7yN0I49q-92" vertex="1">
                    <mxGeometry y="26" width="120" height="30" as="geometry"/>
                </mxCell>
                <mxCell id="fXNpWIg9UfjJ7yN0I49q-113" value="" style="shape=tableRow;horizontal=0;startSize=0;swimlaneHead=0;swimlaneBody=0;fillColor=none;collapsible=0;dropTarget=0;points=[[0,0.5],[1,0.5]];portConstraint=eastwest;top=0;left=0;right=0;bottom=0;" parent="fXNpWIg9UfjJ7yN0I49q-112" vertex="1">
                    <mxGeometry width="120" height="30" as="geometry"/>
                </mxCell>
                <mxCell id="fXNpWIg9UfjJ7yN0I49q-114" value="ID" style="shape=partialRectangle;connectable=0;fillColor=none;top=0;left=0;bottom=0;right=0;fontStyle=0;overflow=hidden;" parent="fXNpWIg9UfjJ7yN0I49q-113" vertex="1">
                    <mxGeometry width="30" height="30" as="geometry">
                        <mxRectangle width="30" height="30" as="alternateBounds"/>
                    </mxGeometry>
                </mxCell>
                <mxCell id="fXNpWIg9UfjJ7yN0I49q-115" value="number" style="shape=partialRectangle;connectable=0;fillColor=none;top=0;left=0;bottom=0;right=0;align=left;spacingLeft=6;fontStyle=0;overflow=hidden;" parent="fXNpWIg9UfjJ7yN0I49q-113" vertex="1">
                    <mxGeometry x="30" width="90" height="30" as="geometry">
                        <mxRectangle width="90" height="30" as="alternateBounds"/>
                    </mxGeometry>
                </mxCell>
                <mxCell id="fXNpWIg9UfjJ7yN0I49q-116" value="pointToDraw: {x, y}" style="text;strokeColor=none;fillColor=none;spacingLeft=4;spacingRight=4;overflow=hidden;rotatable=0;points=[[0,0.5],[1,0.5]];portConstraint=eastwest;fontSize=12;" parent="fXNpWIg9UfjJ7yN0I49q-92" vertex="1">
                    <mxGeometry y="56" width="120" height="30" as="geometry"/>
                </mxCell>
                <mxCell id="fXNpWIg9UfjJ7yN0I49q-165" value="" style="edgeStyle=orthogonalEdgeStyle;rounded=0;orthogonalLoop=1;jettySize=auto;html=1;" parent="kru6xRTg25A1OfZsXqoX-1" source="fXNpWIg9UfjJ7yN0I49q-96" target="fXNpWIg9UfjJ7yN0I49q-164" edge="1">
                    <mxGeometry relative="1" as="geometry"/>
                </mxCell>
                <mxCell id="fXNpWIg9UfjJ7yN0I49q-96" value="Usuwanie elementów" style="whiteSpace=wrap;html=1;" parent="kru6xRTg25A1OfZsXqoX-1" vertex="1">
                    <mxGeometry x="3780" y="2225" width="120" height="60" as="geometry"/>
                </mxCell>
                <mxCell id="fXNpWIg9UfjJ7yN0I49q-99" value="ElemToRemove" style="swimlane;fontStyle=0;childLayout=stackLayout;horizontal=1;startSize=26;horizontalStack=0;resizeParent=1;resizeParentMax=0;resizeLast=0;collapsible=1;marginBottom=0;align=center;fontSize=14;" parent="kru6xRTg25A1OfZsXqoX-1" vertex="1">
                    <mxGeometry x="3783.75" y="2495" width="112.5" height="56" as="geometry"/>
                </mxCell>
                <mxCell id="fXNpWIg9UfjJ7yN0I49q-111" value="Object: {x,y}" style="text;strokeColor=none;fillColor=none;spacingLeft=4;spacingRight=4;overflow=hidden;rotatable=0;points=[[0,0.5],[1,0.5]];portConstraint=eastwest;fontSize=12;" parent="fXNpWIg9UfjJ7yN0I49q-99" vertex="1">
                    <mxGeometry y="26" width="112.5" height="30" as="geometry"/>
                </mxCell>
                <mxCell id="fXNpWIg9UfjJ7yN0I49q-117" value="RemoveSnake" style="swimlane;fontStyle=0;childLayout=stackLayout;horizontal=1;startSize=26;horizontalStack=0;resizeParent=1;resizeParentMax=0;resizeLast=0;collapsible=1;marginBottom=0;align=center;fontSize=14;" parent="kru6xRTg25A1OfZsXqoX-1" vertex="1">
                    <mxGeometry x="3530" y="2495" width="160" height="56" as="geometry"/>
                </mxCell>
                <mxCell id="fXNpWIg9UfjJ7yN0I49q-118" value="[{vector}, ..., {vector}]" style="text;strokeColor=none;fillColor=none;spacingLeft=4;spacingRight=4;overflow=hidden;rotatable=0;points=[[0,0.5],[1,0.5]];portConstraint=eastwest;fontSize=12;" parent="fXNpWIg9UfjJ7yN0I49q-117" vertex="1">
                    <mxGeometry y="26" width="160" height="30" as="geometry"/>
                </mxCell>
                <mxCell id="fXNpWIg9UfjJ7yN0I49q-121" value="Apple" style="swimlane;fontStyle=0;childLayout=stackLayout;horizontal=1;startSize=26;horizontalStack=0;resizeParent=1;resizeParentMax=0;resizeLast=0;collapsible=1;marginBottom=0;align=center;fontSize=14;" parent="kru6xRTg25A1OfZsXqoX-1" vertex="1">
                    <mxGeometry x="3337.5" y="2495" width="85" height="56" as="geometry"/>
                </mxCell>
                <mxCell id="fXNpWIg9UfjJ7yN0I49q-122" value="{x, y}" style="text;strokeColor=none;fillColor=none;spacingLeft=4;spacingRight=4;overflow=hidden;rotatable=0;points=[[0,0.5],[1,0.5]];portConstraint=eastwest;fontSize=12;" parent="fXNpWIg9UfjJ7yN0I49q-121" vertex="1">
                    <mxGeometry y="26" width="85" height="30" as="geometry"/>
                </mxCell>
                <mxCell id="fXNpWIg9UfjJ7yN0I49q-127" value="NewPlayer" style="swimlane;fontStyle=0;childLayout=stackLayout;horizontal=1;startSize=30;horizontalStack=0;resizeParent=1;resizeParentMax=0;resizeLast=0;collapsible=1;marginBottom=0;" parent="kru6xRTg25A1OfZsXqoX-1" vertex="1">
                    <mxGeometry x="3080" y="2495" width="140" height="90" as="geometry"/>
                </mxCell>
                <mxCell id="fXNpWIg9UfjJ7yN0I49q-128" value="" style="shape=table;startSize=0;container=1;collapsible=1;childLayout=tableLayout;fixedRows=1;rowLines=0;fontStyle=0;align=center;resizeLast=1;strokeColor=none;fillColor=none;collapsible=0;" parent="fXNpWIg9UfjJ7yN0I49q-127" vertex="1">
                    <mxGeometry y="30" width="140" height="30" as="geometry"/>
                </mxCell>
                <mxCell id="fXNpWIg9UfjJ7yN0I49q-129" value="" style="shape=tableRow;horizontal=0;startSize=0;swimlaneHead=0;swimlaneBody=0;fillColor=none;collapsible=0;dropTarget=0;points=[[0,0.5],[1,0.5]];portConstraint=eastwest;top=0;left=0;right=0;bottom=0;" parent="fXNpWIg9UfjJ7yN0I49q-128" vertex="1">
                    <mxGeometry width="140" height="30" as="geometry"/>
                </mxCell>
                <mxCell id="fXNpWIg9UfjJ7yN0I49q-130" value="ID" style="shape=partialRectangle;connectable=0;fillColor=none;top=0;left=0;bottom=0;right=0;fontStyle=0;overflow=hidden;" parent="fXNpWIg9UfjJ7yN0I49q-129" vertex="1">
                    <mxGeometry width="30" height="30" as="geometry">
                        <mxRectangle width="30" height="30" as="alternateBounds"/>
                    </mxGeometry>
                </mxCell>
                <mxCell id="fXNpWIg9UfjJ7yN0I49q-131" value="SnakeId" style="shape=partialRectangle;connectable=0;fillColor=none;top=0;left=0;bottom=0;right=0;align=left;spacingLeft=6;fontStyle=0;overflow=hidden;" parent="fXNpWIg9UfjJ7yN0I49q-129" vertex="1">
                    <mxGeometry x="30" width="110" height="30" as="geometry">
                        <mxRectangle width="110" height="30" as="alternateBounds"/>
                    </mxGeometry>
                </mxCell>
                <mxCell id="fXNpWIg9UfjJ7yN0I49q-132" value="Color" style="text;strokeColor=none;fillColor=none;align=left;verticalAlign=middle;spacingLeft=4;spacingRight=4;overflow=hidden;points=[[0,0.5],[1,0.5]];portConstraint=eastwest;rotatable=0;" parent="fXNpWIg9UfjJ7yN0I49q-127" vertex="1">
                    <mxGeometry y="60" width="140" height="30" as="geometry"/>
                </mxCell>
                <mxCell id="fXNpWIg9UfjJ7yN0I49q-134" value="Apple" style="swimlane;fontStyle=0;childLayout=stackLayout;horizontal=1;startSize=26;horizontalStack=0;resizeParent=1;resizeParentMax=0;resizeLast=0;collapsible=1;marginBottom=0;align=center;fontSize=14;" parent="kru6xRTg25A1OfZsXqoX-1" vertex="1">
                    <mxGeometry x="705" y="2890" width="110" height="56" as="geometry"/>
                </mxCell>
                <mxCell id="fXNpWIg9UfjJ7yN0I49q-135" value="{x,y}" style="text;strokeColor=none;fillColor=none;spacingLeft=4;spacingRight=4;overflow=hidden;rotatable=0;points=[[0,0.5],[1,0.5]];portConstraint=eastwest;fontSize=12;" parent="fXNpWIg9UfjJ7yN0I49q-134" vertex="1">
                    <mxGeometry y="26" width="110" height="30" as="geometry"/>
                </mxCell>
                <mxCell id="fXNpWIg9UfjJ7yN0I49q-138" value="RemoveSnake" style="swimlane;fontStyle=0;childLayout=stackLayout;horizontal=1;startSize=26;horizontalStack=0;resizeParent=1;resizeParentMax=0;resizeLast=0;collapsible=1;marginBottom=0;align=center;fontSize=14;" parent="kru6xRTg25A1OfZsXqoX-1" vertex="1">
                    <mxGeometry x="1190" y="3030" width="160" height="56" as="geometry"/>
                </mxCell>
                <mxCell id="fXNpWIg9UfjJ7yN0I49q-139" value="[{vector}, ..., {vector}]" style="text;strokeColor=none;fillColor=none;spacingLeft=4;spacingRight=4;overflow=hidden;rotatable=0;points=[[0,0.5],[1,0.5]];portConstraint=eastwest;fontSize=12;" parent="fXNpWIg9UfjJ7yN0I49q-138" vertex="1">
                    <mxGeometry y="26" width="160" height="30" as="geometry"/>
                </mxCell>
                <mxCell id="fXNpWIg9UfjJ7yN0I49q-141" style="edgeStyle=orthogonalEdgeStyle;rounded=0;orthogonalLoop=1;jettySize=auto;html=1;entryX=0.5;entryY=0.009;entryDx=0;entryDy=0;entryPerimeter=0;" parent="kru6xRTg25A1OfZsXqoX-1" source="fXNpWIg9UfjJ7yN0I49q-142" target="fXNpWIg9UfjJ7yN0I49q-143" edge="1">
                    <mxGeometry relative="1" as="geometry">
                        <mxPoint x="2344.999999999999" y="3145" as="targetPoint"/>
                        <Array as="points"/>
                    </mxGeometry>
                </mxCell>
                <mxCell id="fXNpWIg9UfjJ7yN0I49q-142" value="Wąż do narysowania" style="whiteSpace=wrap;html=1;" parent="kru6xRTg25A1OfZsXqoX-1" vertex="1">
                    <mxGeometry x="2320" y="3000" width="120" height="60" as="geometry"/>
                </mxCell>
                <mxCell id="fXNpWIg9UfjJ7yN0I49q-143" value="SnakeToDraw" style="swimlane;fontStyle=0;childLayout=stackLayout;horizontal=1;startSize=26;horizontalStack=0;resizeParent=1;resizeParentMax=0;resizeLast=0;collapsible=1;marginBottom=0;align=center;fontSize=14;" parent="kru6xRTg25A1OfZsXqoX-1" vertex="1">
                    <mxGeometry x="2297.5" y="3135" width="165" height="86" as="geometry"/>
                </mxCell>
                <mxCell id="fXNpWIg9UfjJ7yN0I49q-144" value="" style="shape=table;startSize=0;container=1;collapsible=1;childLayout=tableLayout;fixedRows=1;rowLines=0;fontStyle=0;align=center;resizeLast=1;strokeColor=none;fillColor=none;collapsible=0;" parent="fXNpWIg9UfjJ7yN0I49q-143" vertex="1">
                    <mxGeometry y="26" width="165" height="30" as="geometry"/>
                </mxCell>
                <mxCell id="fXNpWIg9UfjJ7yN0I49q-145" value="" style="shape=tableRow;horizontal=0;startSize=0;swimlaneHead=0;swimlaneBody=0;fillColor=none;collapsible=0;dropTarget=0;points=[[0,0.5],[1,0.5]];portConstraint=eastwest;top=0;left=0;right=0;bottom=0;" parent="fXNpWIg9UfjJ7yN0I49q-144" vertex="1">
                    <mxGeometry width="165" height="30" as="geometry"/>
                </mxCell>
                <mxCell id="fXNpWIg9UfjJ7yN0I49q-146" value="ID" style="shape=partialRectangle;connectable=0;fillColor=none;top=0;left=0;bottom=0;right=0;fontStyle=0;overflow=hidden;" parent="fXNpWIg9UfjJ7yN0I49q-145" vertex="1">
                    <mxGeometry width="30" height="30" as="geometry">
                        <mxRectangle width="30" height="30" as="alternateBounds"/>
                    </mxGeometry>
                </mxCell>
                <mxCell id="fXNpWIg9UfjJ7yN0I49q-147" value="number" style="shape=partialRectangle;connectable=0;fillColor=none;top=0;left=0;bottom=0;right=0;align=left;spacingLeft=6;fontStyle=0;overflow=hidden;" parent="fXNpWIg9UfjJ7yN0I49q-145" vertex="1">
                    <mxGeometry x="30" width="135" height="30" as="geometry">
                        <mxRectangle width="135" height="30" as="alternateBounds"/>
                    </mxGeometry>
                </mxCell>
                <mxCell id="fXNpWIg9UfjJ7yN0I49q-148" value="pointToDraw: { x,y}" style="text;strokeColor=none;fillColor=none;spacingLeft=4;spacingRight=4;overflow=hidden;rotatable=0;points=[[0,0.5],[1,0.5]];portConstraint=eastwest;fontSize=12;" parent="fXNpWIg9UfjJ7yN0I49q-143" vertex="1">
                    <mxGeometry y="56" width="165" height="30" as="geometry"/>
                </mxCell>
                <mxCell id="fXNpWIg9UfjJ7yN0I49q-149" style="edgeStyle=orthogonalEdgeStyle;rounded=0;orthogonalLoop=1;jettySize=auto;html=1;entryX=0.5;entryY=0;entryDx=0;entryDy=0;" parent="kru6xRTg25A1OfZsXqoX-1" source="fXNpWIg9UfjJ7yN0I49q-150" target="fXNpWIg9UfjJ7yN0I49q-151" edge="1">
                    <mxGeometry relative="1" as="geometry"/>
                </mxCell>
                <mxCell id="fXNpWIg9UfjJ7yN0I49q-150" value="Usuwanie elementów" style="whiteSpace=wrap;html=1;" parent="kru6xRTg25A1OfZsXqoX-1" vertex="1">
                    <mxGeometry x="2075" y="3000" width="120" height="60" as="geometry"/>
                </mxCell>
                <mxCell id="fXNpWIg9UfjJ7yN0I49q-151" value="ElemToRemove" style="swimlane;fontStyle=0;childLayout=stackLayout;horizontal=1;startSize=26;horizontalStack=0;resizeParent=1;resizeParentMax=0;resizeLast=0;collapsible=1;marginBottom=0;align=center;fontSize=14;" parent="kru6xRTg25A1OfZsXqoX-1" vertex="1">
                    <mxGeometry x="2055" y="3135" width="160" height="56" as="geometry"/>
                </mxCell>
                <mxCell id="fXNpWIg9UfjJ7yN0I49q-152" value="Object: { x y}" style="text;strokeColor=none;fillColor=none;spacingLeft=4;spacingRight=4;overflow=hidden;rotatable=0;points=[[0,0.5],[1,0.5]];portConstraint=eastwest;fontSize=12;" parent="fXNpWIg9UfjJ7yN0I49q-151" vertex="1">
                    <mxGeometry y="26" width="160" height="30" as="geometry"/>
                </mxCell>
                <mxCell id="fXNpWIg9UfjJ7yN0I49q-155" style="edgeStyle=orthogonalEdgeStyle;rounded=0;orthogonalLoop=1;jettySize=auto;html=1;entryX=0.5;entryY=0;entryDx=0;entryDy=0;endArrow=none;endFill=0;startArrow=classic;startFill=1;" parent="kru6xRTg25A1OfZsXqoX-1" source="fXNpWIg9UfjJ7yN0I49q-148" target="fXNpWIg9UfjJ7yN0I49q-159" edge="1">
                    <mxGeometry relative="1" as="geometry">
                        <mxPoint x="2840.0000000000005" y="3206" as="targetPoint"/>
                    </mxGeometry>
                </mxCell>
                <mxCell id="fXNpWIg9UfjJ7yN0I49q-159" value="Budowa wektora" style="swimlane;fontStyle=0;childLayout=stackLayout;horizontal=1;startSize=26;horizontalStack=0;resizeParent=1;resizeParentMax=0;resizeLast=0;collapsible=1;marginBottom=0;align=center;fontSize=14;" parent="kru6xRTg25A1OfZsXqoX-1" vertex="1">
                    <mxGeometry x="2880" y="3151" width="160" height="86" as="geometry"/>
                </mxCell>
                <mxCell id="fXNpWIg9UfjJ7yN0I49q-160" value="Punkt początkowy: {x,y}" style="text;strokeColor=none;fillColor=none;spacingLeft=4;spacingRight=4;overflow=hidden;rotatable=0;points=[[0,0.5],[1,0.5]];portConstraint=eastwest;fontSize=12;" parent="fXNpWIg9UfjJ7yN0I49q-159" vertex="1">
                    <mxGeometry y="26" width="160" height="30" as="geometry"/>
                </mxCell>
                <mxCell id="fXNpWIg9UfjJ7yN0I49q-161" value="Współrzędne wektora: [x,y]" style="text;strokeColor=none;fillColor=none;spacingLeft=4;spacingRight=4;overflow=hidden;rotatable=0;points=[[0,0.5],[1,0.5]];portConstraint=eastwest;fontSize=12;" parent="fXNpWIg9UfjJ7yN0I49q-159" vertex="1">
                    <mxGeometry y="56" width="160" height="30" as="geometry"/>
                </mxCell>
                <mxCell id="fXNpWIg9UfjJ7yN0I49q-166" style="edgeStyle=orthogonalEdgeStyle;rounded=0;orthogonalLoop=1;jettySize=auto;html=1;entryX=0.5;entryY=0;entryDx=0;entryDy=0;" parent="kru6xRTg25A1OfZsXqoX-1" source="fXNpWIg9UfjJ7yN0I49q-164" target="fXNpWIg9UfjJ7yN0I49q-99" edge="1">
                    <mxGeometry relative="1" as="geometry"/>
                </mxCell>
                <mxCell id="fXNpWIg9UfjJ7yN0I49q-164" value="Zamalowanie wskazanego elementu" style="whiteSpace=wrap;html=1;" parent="kru6xRTg25A1OfZsXqoX-1" vertex="1">
                    <mxGeometry x="3780" y="2360" width="120" height="60" as="geometry"/>
                </mxCell>
                <mxCell id="fXNpWIg9UfjJ7yN0I49q-169" style="edgeStyle=orthogonalEdgeStyle;rounded=0;orthogonalLoop=1;jettySize=auto;html=1;entryX=0.5;entryY=0;entryDx=0;entryDy=0;" parent="kru6xRTg25A1OfZsXqoX-1" source="fXNpWIg9UfjJ7yN0I49q-167" target="fXNpWIg9UfjJ7yN0I49q-92" edge="1">
                    <mxGeometry relative="1" as="geometry"/>
                </mxCell>
                <mxCell id="fXNpWIg9UfjJ7yN0I49q-167" value="Narysowanie elementu odpowiedniego węża" style="whiteSpace=wrap;html=1;" parent="kru6xRTg25A1OfZsXqoX-1" vertex="1">
                    <mxGeometry x="4025" y="2360" width="120" height="60" as="geometry"/>
                </mxCell>
                <mxCell id="fXNpWIg9UfjJ7yN0I49q-170" value="Uzywać do tego nie wektorow tylko rownania prostej&lt;br&gt;" style="text;html=1;align=center;verticalAlign=middle;resizable=0;points=[];autosize=1;strokeColor=none;fillColor=none;" parent="kru6xRTg25A1OfZsXqoX-1" vertex="1">
                    <mxGeometry x="1020" y="1930" width="290" height="20" as="geometry"/>
                </mxCell>
            </root>
        </mxGraphModel>
    </diagram>
</mxfile>